<svg width="56" height="56" viewBox="0 0 56 56" fill="none" xmlns="http://www.w3.org/2000/svg">
<rect width="56" height="56" rx="14" fill="#6C8B7D" fill-opacity="0.1"/>
<path d="M32.6673 38.5V36.1667C32.6673 34.929 32.1757 33.742 31.3005 32.8668C30.4253 31.9917 29.2383 31.5 28.0007 31.5H21.0007C19.763 31.5 18.576 31.9917 17.7008 32.8668C16.8256 33.742 16.334 34.929 16.334 36.1667V38.5" stroke="#6C8B7D" stroke-width="2.33333" stroke-linecap="round" stroke-linejoin="round"/>
<path d="M32.666 17.6494C33.6667 17.9088 34.553 18.4932 35.1856 19.3108C35.8183 20.1284 36.1616 21.133 36.1616 22.1667C36.1616 23.2005 35.8183 24.2051 35.1856 25.0227C34.553 25.8403 33.6667 26.4246 32.666 26.6841" stroke="#6C8B7D" stroke-width="2.33333" stroke-linecap="round" stroke-linejoin="round"/>
<path d="M39.666 38.5002V36.1669C39.6652 35.1329 39.3211 34.1284 38.6876 33.3112C38.0541 32.494 37.1672 31.9104 36.166 31.6519" stroke="#6C8B7D" stroke-width="2.33333" stroke-linecap="round" stroke-linejoin="round"/>
<path d="M24.5007 26.8333C27.078 26.8333 29.1673 24.744 29.1673 22.1667C29.1673 19.5893 27.078 17.5 24.5007 17.5C21.9233 17.5 19.834 19.5893 19.834 22.1667C19.834 24.744 21.9233 26.8333 24.5007 26.8333Z" stroke="#6C8B7D" stroke-width="2.33333" stroke-linecap="round" stroke-linejoin="round"/>
</svg>
