<svg width="56" height="56" viewBox="0 0 56 56" fill="none" xmlns="http://www.w3.org/2000/svg">
<rect width="56" height="56" rx="14" fill="#6C8B7D" fill-opacity="0.1"/>
<path d="M25.2827 18.8252C25.347 18.1489 25.6611 17.5209 26.1637 17.0638C26.6662 16.6068 27.3211 16.3535 28.0004 16.3535C28.6798 16.3535 29.3347 16.6068 29.8372 17.0638C30.3398 17.5209 30.6539 18.1489 30.7182 18.8252C30.7568 19.262 30.9002 19.6832 31.136 20.0529C31.3719 20.4227 31.6934 20.7301 32.0732 20.9493C32.4531 21.1685 32.8802 21.2929 33.3184 21.3121C33.7565 21.3312 34.1928 21.2445 34.5904 21.0594C35.2077 20.7791 35.9072 20.7385 36.5527 20.9456C37.1982 21.1526 37.7437 21.5925 38.0828 22.1795C38.4219 22.7665 38.5305 23.4587 38.3874 24.1214C38.2444 24.784 37.8598 25.3697 37.3087 25.7645C36.9498 26.0163 36.6568 26.3509 36.4546 26.7399C36.2523 27.1289 36.1468 27.5608 36.1468 27.9993C36.1468 28.4377 36.2523 28.8697 36.4546 29.2587C36.6568 29.6476 36.9498 29.9822 37.3087 30.234C37.8598 30.6288 38.2444 31.2145 38.3874 31.8772C38.5305 32.5398 38.4219 33.232 38.0828 33.8191C37.7437 34.4061 37.1982 34.8459 36.5527 35.053C35.9072 35.26 35.2077 35.2194 34.5904 34.9392C34.1928 34.754 33.7565 34.6673 33.3184 34.6865C32.8802 34.7056 32.4531 34.83 32.0732 35.0492C31.6934 35.2684 31.3719 35.5759 31.136 35.9456C30.9002 36.3154 30.7568 36.7365 30.7182 37.1734C30.6539 37.8496 30.3398 38.4776 29.8372 38.9347C29.3347 39.3917 28.6798 39.645 28.0004 39.645C27.3211 39.645 26.6662 39.3917 26.1637 38.9347C25.6611 38.4776 25.347 37.8496 25.2827 37.1734C25.2441 36.7363 25.1008 36.315 24.8649 35.9452C24.6289 35.5753 24.3073 35.2677 23.9273 35.0485C23.5473 34.8293 23.12 34.7049 22.6817 34.6859C22.2434 34.6669 21.807 34.7537 21.4094 34.9392C20.7921 35.2194 20.0926 35.26 19.447 35.053C18.8015 34.8459 18.2561 34.4061 17.9169 33.8191C17.5778 33.232 17.4692 32.5398 17.6123 31.8772C17.7554 31.2145 18.1399 30.6288 18.691 30.234C19.0499 29.9822 19.3429 29.6476 19.5451 29.2587C19.7474 28.8697 19.853 28.4377 19.853 27.9993C19.853 27.5608 19.7474 27.1289 19.5451 26.7399C19.3429 26.3509 19.0499 26.0163 18.691 25.7645C18.1407 25.3695 17.7568 24.784 17.6141 24.1218C17.4713 23.4596 17.5799 22.768 17.9187 22.1813C18.2575 21.5947 18.8022 21.155 19.4471 20.9476C20.092 20.7403 20.791 20.7801 21.4082 21.0594C21.8058 21.2445 22.2421 21.3312 22.6802 21.3121C23.1184 21.2929 23.5455 21.1685 23.9253 20.9493C24.3052 20.7301 24.6267 20.4227 24.8625 20.0529C25.0984 19.6832 25.2417 19.262 25.2804 18.8252" stroke="#6C8B7D" stroke-width="2.33333" stroke-linecap="round" stroke-linejoin="round"/>
<path d="M28 31.5C29.933 31.5 31.5 29.933 31.5 28C31.5 26.067 29.933 24.5 28 24.5C26.067 24.5 24.5 26.067 24.5 28C24.5 29.933 26.067 31.5 28 31.5Z" stroke="#6C8B7D" stroke-width="2.33333" stroke-linecap="round" stroke-linejoin="round"/>
</svg>
