<svg width="56" height="56" viewBox="0 0 56 56" fill="none" xmlns="http://www.w3.org/2000/svg">
<rect width="56" height="56" rx="14" fill="#6C8B7D" fill-opacity="0.1"/>
<path d="M37.3327 29.1669C37.3327 35.0002 33.2493 37.9169 28.396 39.6085C28.1419 39.6947 27.8658 39.6905 27.6143 39.5969C22.7493 37.9169 18.666 35.0002 18.666 29.1669V21.0002C18.666 20.6908 18.7889 20.394 19.0077 20.1752C19.2265 19.9564 19.5233 19.8335 19.8327 19.8335C22.166 19.8335 25.0827 18.4335 27.1127 16.6602C27.3598 16.449 27.6743 16.333 27.9993 16.333C28.3244 16.333 28.6389 16.449 28.886 16.6602C30.9277 18.4452 33.8327 19.8335 36.166 19.8335C36.4754 19.8335 36.7722 19.9564 36.991 20.1752C37.2098 20.394 37.3327 20.6908 37.3327 21.0002V29.1669Z" stroke="#6C8B7D" stroke-width="2.33333" stroke-linecap="round" stroke-linejoin="round"/>
</svg>
