<svg width="692" height="538" viewBox="0 0 692 538" fill="none" xmlns="http://www.w3.org/2000/svg">
<g filter="url(#filter0_d_3219_8551)">
<rect x="38" y="13" width="616" height="462" rx="16" fill="white"/>
<rect x="38.5" y="13.5" width="615" height="461" rx="15.5" stroke="#E5E7EB"/>
<path d="M78.632 67.216C77.684 67.216 76.802 67.042 75.986 66.694C75.182 66.346 74.48 65.866 73.88 65.254C73.292 64.63 72.83 63.898 72.494 63.058C72.158 62.218 71.99 61.294 71.99 60.286C71.99 59.29 72.152 58.372 72.476 57.532C72.812 56.68 73.28 55.948 73.88 55.336C74.48 54.712 75.182 54.232 75.986 53.896C76.79 53.548 77.672 53.374 78.632 53.374C79.58 53.374 80.426 53.536 81.17 53.86C81.926 54.184 82.562 54.61 83.078 55.138C83.594 55.654 83.966 56.218 84.194 56.83L82.286 57.73C81.998 57.01 81.536 56.428 80.9 55.984C80.276 55.528 79.52 55.3 78.632 55.3C77.744 55.3 76.958 55.51 76.274 55.93C75.59 56.35 75.056 56.932 74.672 57.676C74.3 58.42 74.114 59.29 74.114 60.286C74.114 61.282 74.3 62.158 74.672 62.914C75.056 63.658 75.59 64.24 76.274 64.66C76.958 65.068 77.744 65.272 78.632 65.272C79.52 65.272 80.276 65.05 80.9 64.606C81.536 64.162 81.998 63.58 82.286 62.86L84.194 63.76C83.966 64.36 83.594 64.924 83.078 65.452C82.562 65.98 81.926 66.406 81.17 66.73C80.426 67.054 79.58 67.216 78.632 67.216ZM88.9204 67.216C88.2604 67.216 87.6784 67.102 87.1744 66.874C86.6824 66.634 86.2984 66.31 86.0224 65.902C85.7464 65.482 85.6084 64.99 85.6084 64.426C85.6084 63.898 85.7224 63.424 85.9504 63.004C86.1904 62.584 86.5564 62.23 87.0484 61.942C87.5404 61.654 88.1584 61.45 88.9024 61.33L92.2864 60.772V62.374L89.2984 62.896C88.7584 62.992 88.3624 63.166 88.1104 63.418C87.8584 63.658 87.7324 63.97 87.7324 64.354C87.7324 64.726 87.8704 65.032 88.1464 65.272C88.4344 65.5 88.8004 65.614 89.2444 65.614C89.7964 65.614 90.2764 65.494 90.6844 65.254C91.1044 65.014 91.4284 64.696 91.6564 64.3C91.8844 63.892 91.9984 63.442 91.9984 62.95V60.448C91.9984 59.968 91.8184 59.578 91.4584 59.278C91.1104 58.966 90.6424 58.81 90.0544 58.81C89.5144 58.81 89.0404 58.954 88.6324 59.242C88.2364 59.518 87.9424 59.878 87.7504 60.322L86.0584 59.476C86.2384 58.996 86.5324 58.576 86.9404 58.216C87.3484 57.844 87.8224 57.556 88.3624 57.352C88.9144 57.148 89.4964 57.046 90.1084 57.046C90.8764 57.046 91.5544 57.19 92.1424 57.478C92.7424 57.766 93.2044 58.168 93.5284 58.684C93.8644 59.188 94.0324 59.776 94.0324 60.448V67H92.0884V65.236L92.5024 65.29C92.2744 65.686 91.9804 66.028 91.6204 66.316C91.2724 66.604 90.8704 66.826 90.4144 66.982C89.9704 67.138 89.4724 67.216 88.9204 67.216ZM96.4107 67V53.374H98.4447V67H96.4107ZM100.823 67V53.374H102.857V67H100.823ZM114.825 67.216C113.877 67.216 112.995 67.042 112.179 66.694C111.375 66.346 110.673 65.866 110.073 65.254C109.485 64.63 109.023 63.898 108.687 63.058C108.351 62.218 108.183 61.294 108.183 60.286C108.183 59.29 108.345 58.372 108.669 57.532C109.005 56.68 109.473 55.948 110.073 55.336C110.673 54.712 111.375 54.232 112.179 53.896C112.983 53.548 113.865 53.374 114.825 53.374C115.773 53.374 116.619 53.536 117.363 53.86C118.119 54.184 118.755 54.61 119.271 55.138C119.787 55.654 120.159 56.218 120.387 56.83L118.479 57.73C118.191 57.01 117.729 56.428 117.093 55.984C116.469 55.528 115.713 55.3 114.825 55.3C113.937 55.3 113.151 55.51 112.467 55.93C111.783 56.35 111.249 56.932 110.865 57.676C110.493 58.42 110.307 59.29 110.307 60.286C110.307 61.282 110.493 62.158 110.865 62.914C111.249 63.658 111.783 64.24 112.467 64.66C113.151 65.068 113.937 65.272 114.825 65.272C115.713 65.272 116.469 65.05 117.093 64.606C117.729 64.162 118.191 63.58 118.479 62.86L120.387 63.76C120.159 64.36 119.787 64.924 119.271 65.452C118.755 65.98 118.119 66.406 117.363 66.73C116.619 67.054 115.773 67.216 114.825 67.216ZM126.77 67.216C125.798 67.216 124.934 66.994 124.178 66.55C123.434 66.094 122.852 65.482 122.432 64.714C122.012 63.934 121.802 63.064 121.802 62.104C121.802 61.12 122.012 60.25 122.432 59.494C122.864 58.738 123.44 58.144 124.16 57.712C124.88 57.268 125.696 57.046 126.608 57.046C127.34 57.046 127.994 57.172 128.57 57.424C129.146 57.676 129.632 58.024 130.028 58.468C130.424 58.9 130.724 59.398 130.928 59.962C131.144 60.526 131.252 61.126 131.252 61.762C131.252 61.918 131.246 62.08 131.234 62.248C131.222 62.416 131.198 62.572 131.162 62.716H123.404V61.096H130.01L129.038 61.834C129.158 61.246 129.116 60.724 128.912 60.268C128.72 59.8 128.42 59.434 128.012 59.17C127.616 58.894 127.148 58.756 126.608 58.756C126.068 58.756 125.588 58.894 125.168 59.17C124.748 59.434 124.424 59.818 124.196 60.322C123.968 60.814 123.878 61.414 123.926 62.122C123.866 62.782 123.956 63.358 124.196 63.85C124.448 64.342 124.796 64.726 125.24 65.002C125.696 65.278 126.212 65.416 126.788 65.416C127.376 65.416 127.874 65.284 128.282 65.02C128.702 64.756 129.032 64.414 129.272 63.994L130.928 64.804C130.736 65.26 130.436 65.674 130.028 66.046C129.632 66.406 129.152 66.694 128.588 66.91C128.036 67.114 127.43 67.216 126.77 67.216ZM133.237 67V57.262H135.181V59.17L134.947 58.918C135.187 58.306 135.571 57.844 136.099 57.532C136.627 57.208 137.239 57.046 137.935 57.046C138.655 57.046 139.291 57.202 139.843 57.514C140.395 57.826 140.827 58.258 141.139 58.81C141.451 59.362 141.607 59.998 141.607 60.718V67H139.591V61.258C139.591 60.766 139.501 60.352 139.321 60.016C139.141 59.668 138.883 59.404 138.547 59.224C138.223 59.032 137.851 58.936 137.431 58.936C137.011 58.936 136.633 59.032 136.297 59.224C135.973 59.404 135.721 59.668 135.541 60.016C135.361 60.364 135.271 60.778 135.271 61.258V67H133.237ZM147.996 67.108C146.976 67.108 146.184 66.82 145.62 66.244C145.056 65.668 144.774 64.858 144.774 63.814V59.098H143.064V57.262H143.334C143.79 57.262 144.144 57.13 144.396 56.866C144.648 56.602 144.774 56.242 144.774 55.786V55.03H146.808V57.262H149.022V59.098H146.808V63.724C146.808 64.06 146.862 64.348 146.97 64.588C147.078 64.816 147.252 64.996 147.492 65.128C147.732 65.248 148.044 65.308 148.428 65.308C148.524 65.308 148.632 65.302 148.752 65.29C148.872 65.278 148.986 65.266 149.094 65.254V67C148.926 67.024 148.74 67.048 148.536 67.072C148.332 67.096 148.152 67.108 147.996 67.108ZM155.475 67.216C154.503 67.216 153.639 66.994 152.883 66.55C152.139 66.094 151.557 65.482 151.137 64.714C150.717 63.934 150.507 63.064 150.507 62.104C150.507 61.12 150.717 60.25 151.137 59.494C151.569 58.738 152.145 58.144 152.865 57.712C153.585 57.268 154.401 57.046 155.313 57.046C156.045 57.046 156.699 57.172 157.275 57.424C157.851 57.676 158.337 58.024 158.733 58.468C159.129 58.9 159.429 59.398 159.633 59.962C159.849 60.526 159.957 61.126 159.957 61.762C159.957 61.918 159.951 62.08 159.939 62.248C159.927 62.416 159.903 62.572 159.867 62.716H152.109V61.096H158.715L157.743 61.834C157.863 61.246 157.821 60.724 157.617 60.268C157.425 59.8 157.125 59.434 156.717 59.17C156.321 58.894 155.853 58.756 155.313 58.756C154.773 58.756 154.293 58.894 153.873 59.17C153.453 59.434 153.129 59.818 152.901 60.322C152.673 60.814 152.583 61.414 152.631 62.122C152.571 62.782 152.661 63.358 152.901 63.85C153.153 64.342 153.501 64.726 153.945 65.002C154.401 65.278 154.917 65.416 155.493 65.416C156.081 65.416 156.579 65.284 156.987 65.02C157.407 64.756 157.737 64.414 157.977 63.994L159.633 64.804C159.441 65.26 159.141 65.674 158.733 66.046C158.337 66.406 157.857 66.694 157.293 66.91C156.741 67.114 156.135 67.216 155.475 67.216ZM161.942 67V57.262H163.886V59.224L163.706 58.936C163.922 58.3 164.27 57.844 164.75 57.568C165.23 57.28 165.806 57.136 166.478 57.136H167.072V58.99H166.226C165.554 58.99 165.008 59.2 164.588 59.62C164.18 60.028 163.976 60.616 163.976 61.384V67H161.942ZM171.808 67V53.59H176.2C177.592 53.59 178.798 53.872 179.818 54.436C180.85 54.988 181.648 55.768 182.212 56.776C182.776 57.784 183.058 58.954 183.058 60.286C183.058 61.606 182.776 62.776 182.212 63.796C181.648 64.804 180.85 65.59 179.818 66.154C178.798 66.718 177.592 67 176.2 67H171.808ZM173.932 65.11H176.236C177.184 65.11 178.006 64.912 178.702 64.516C179.41 64.12 179.956 63.562 180.34 62.842C180.724 62.122 180.916 61.27 180.916 60.286C180.916 59.302 180.718 58.456 180.322 57.748C179.938 57.028 179.398 56.47 178.702 56.074C178.006 55.678 177.184 55.48 176.236 55.48H173.932V65.11ZM187.78 67.216C187.12 67.216 186.538 67.102 186.034 66.874C185.542 66.634 185.158 66.31 184.882 65.902C184.606 65.482 184.468 64.99 184.468 64.426C184.468 63.898 184.582 63.424 184.81 63.004C185.05 62.584 185.416 62.23 185.908 61.942C186.4 61.654 187.018 61.45 187.762 61.33L191.146 60.772V62.374L188.158 62.896C187.618 62.992 187.222 63.166 186.97 63.418C186.718 63.658 186.592 63.97 186.592 64.354C186.592 64.726 186.73 65.032 187.006 65.272C187.294 65.5 187.66 65.614 188.104 65.614C188.656 65.614 189.136 65.494 189.544 65.254C189.964 65.014 190.288 64.696 190.516 64.3C190.744 63.892 190.858 63.442 190.858 62.95V60.448C190.858 59.968 190.678 59.578 190.318 59.278C189.97 58.966 189.502 58.81 188.914 58.81C188.374 58.81 187.9 58.954 187.492 59.242C187.096 59.518 186.802 59.878 186.61 60.322L184.918 59.476C185.098 58.996 185.392 58.576 185.8 58.216C186.208 57.844 186.682 57.556 187.222 57.352C187.774 57.148 188.356 57.046 188.968 57.046C189.736 57.046 190.414 57.19 191.002 57.478C191.602 57.766 192.064 58.168 192.388 58.684C192.724 59.188 192.892 59.776 192.892 60.448V67H190.948V65.236L191.362 65.29C191.134 65.686 190.84 66.028 190.48 66.316C190.132 66.604 189.73 66.826 189.274 66.982C188.83 67.138 188.332 67.216 187.78 67.216ZM198.87 67.216C197.874 67.216 196.998 66.97 196.242 66.478C195.498 65.986 194.976 65.326 194.676 64.498L196.242 63.76C196.506 64.312 196.866 64.75 197.322 65.074C197.79 65.398 198.306 65.56 198.87 65.56C199.35 65.56 199.74 65.452 200.04 65.236C200.34 65.02 200.49 64.726 200.49 64.354C200.49 64.114 200.424 63.922 200.292 63.778C200.16 63.622 199.992 63.496 199.788 63.4C199.596 63.304 199.398 63.232 199.194 63.184L197.664 62.752C196.824 62.512 196.194 62.152 195.774 61.672C195.366 61.18 195.162 60.61 195.162 59.962C195.162 59.374 195.312 58.864 195.612 58.432C195.912 57.988 196.326 57.646 196.854 57.406C197.382 57.166 197.976 57.046 198.636 57.046C199.524 57.046 200.316 57.268 201.012 57.712C201.708 58.144 202.2 58.75 202.488 59.53L200.922 60.268C200.73 59.8 200.424 59.428 200.004 59.152C199.596 58.876 199.134 58.738 198.618 58.738C198.174 58.738 197.82 58.846 197.556 59.062C197.292 59.266 197.16 59.536 197.16 59.872C197.16 60.1 197.22 60.292 197.34 60.448C197.46 60.592 197.616 60.712 197.808 60.808C198 60.892 198.198 60.964 198.402 61.024L199.986 61.492C200.79 61.72 201.408 62.08 201.84 62.572C202.272 63.052 202.488 63.628 202.488 64.3C202.488 64.876 202.332 65.386 202.02 65.83C201.72 66.262 201.3 66.604 200.76 66.856C200.22 67.096 199.59 67.216 198.87 67.216ZM204.481 67V53.374H206.515V59.17L206.191 58.918C206.431 58.306 206.815 57.844 207.343 57.532C207.871 57.208 208.483 57.046 209.179 57.046C209.899 57.046 210.535 57.202 211.087 57.514C211.639 57.826 212.071 58.258 212.383 58.81C212.695 59.362 212.851 59.992 212.851 60.7V67H210.835V61.258C210.835 60.766 210.739 60.352 210.547 60.016C210.367 59.668 210.115 59.404 209.791 59.224C209.467 59.032 209.095 58.936 208.675 58.936C208.267 58.936 207.895 59.032 207.559 59.224C207.235 59.404 206.977 59.668 206.785 60.016C206.605 60.364 206.515 60.778 206.515 61.258V67H204.481ZM220.23 67.216C219.474 67.216 218.784 67.06 218.16 66.748C217.548 66.436 217.074 65.986 216.738 65.398L216.972 65.02V67H215.028V53.374H217.062V59.278L216.738 58.81C217.098 58.258 217.578 57.826 218.178 57.514C218.778 57.202 219.462 57.046 220.23 57.046C221.154 57.046 221.982 57.268 222.714 57.712C223.458 58.156 224.04 58.762 224.46 59.53C224.892 60.298 225.108 61.162 225.108 62.122C225.108 63.082 224.892 63.946 224.46 64.714C224.04 65.482 223.464 66.094 222.732 66.55C222 66.994 221.166 67.216 220.23 67.216ZM220.032 65.326C220.608 65.326 221.118 65.188 221.562 64.912C222.006 64.636 222.354 64.258 222.606 63.778C222.87 63.286 223.002 62.734 223.002 62.122C223.002 61.51 222.87 60.964 222.606 60.484C222.354 60.004 222.006 59.626 221.562 59.35C221.118 59.074 220.608 58.936 220.032 58.936C219.468 58.936 218.958 59.074 218.502 59.35C218.058 59.626 217.704 60.004 217.44 60.484C217.188 60.964 217.062 61.51 217.062 62.122C217.062 62.734 217.188 63.286 217.44 63.778C217.704 64.258 218.058 64.636 218.502 64.912C218.958 65.188 219.468 65.326 220.032 65.326ZM231.784 67.216C230.848 67.216 229.99 66.994 229.21 66.55C228.442 66.106 227.83 65.5 227.374 64.732C226.918 63.964 226.69 63.094 226.69 62.122C226.69 61.138 226.918 60.268 227.374 59.512C227.83 58.744 228.442 58.144 229.21 57.712C229.978 57.268 230.836 57.046 231.784 57.046C232.744 57.046 233.602 57.268 234.358 57.712C235.126 58.144 235.732 58.744 236.176 59.512C236.632 60.268 236.86 61.138 236.86 62.122C236.86 63.106 236.632 63.982 236.176 64.75C235.72 65.518 235.108 66.124 234.34 66.568C233.572 67 232.72 67.216 231.784 67.216ZM231.784 65.326C232.36 65.326 232.87 65.188 233.314 64.912C233.758 64.636 234.106 64.258 234.358 63.778C234.622 63.286 234.754 62.734 234.754 62.122C234.754 61.51 234.622 60.964 234.358 60.484C234.106 60.004 233.758 59.626 233.314 59.35C232.87 59.074 232.36 58.936 231.784 58.936C231.22 58.936 230.71 59.074 230.254 59.35C229.81 59.626 229.456 60.004 229.192 60.484C228.94 60.964 228.814 61.51 228.814 62.122C228.814 62.734 228.94 63.286 229.192 63.778C229.456 64.258 229.81 64.636 230.254 64.912C230.71 65.188 231.22 65.326 231.784 65.326ZM241.762 67.216C241.102 67.216 240.52 67.102 240.016 66.874C239.524 66.634 239.14 66.31 238.864 65.902C238.588 65.482 238.45 64.99 238.45 64.426C238.45 63.898 238.564 63.424 238.792 63.004C239.032 62.584 239.398 62.23 239.89 61.942C240.382 61.654 241 61.45 241.744 61.33L245.128 60.772V62.374L242.14 62.896C241.6 62.992 241.204 63.166 240.952 63.418C240.7 63.658 240.574 63.97 240.574 64.354C240.574 64.726 240.712 65.032 240.988 65.272C241.276 65.5 241.642 65.614 242.086 65.614C242.638 65.614 243.118 65.494 243.526 65.254C243.946 65.014 244.27 64.696 244.498 64.3C244.726 63.892 244.84 63.442 244.84 62.95V60.448C244.84 59.968 244.66 59.578 244.3 59.278C243.952 58.966 243.484 58.81 242.896 58.81C242.356 58.81 241.882 58.954 241.474 59.242C241.078 59.518 240.784 59.878 240.592 60.322L238.9 59.476C239.08 58.996 239.374 58.576 239.782 58.216C240.19 57.844 240.664 57.556 241.204 57.352C241.756 57.148 242.338 57.046 242.95 57.046C243.718 57.046 244.396 57.19 244.984 57.478C245.584 57.766 246.046 58.168 246.37 58.684C246.706 59.188 246.874 59.776 246.874 60.448V67H244.93V65.236L245.344 65.29C245.116 65.686 244.822 66.028 244.462 66.316C244.114 66.604 243.712 66.826 243.256 66.982C242.812 67.138 242.314 67.216 241.762 67.216ZM249.252 67V57.262H251.196V59.224L251.016 58.936C251.232 58.3 251.58 57.844 252.06 57.568C252.54 57.28 253.116 57.136 253.788 57.136H254.382V58.99H253.536C252.864 58.99 252.318 59.2 251.898 59.62C251.49 60.028 251.286 60.616 251.286 61.384V67H249.252ZM260.274 67.216C259.338 67.216 258.498 66.994 257.754 66.55C257.022 66.094 256.44 65.482 256.008 64.714C255.588 63.946 255.378 63.082 255.378 62.122C255.378 61.162 255.594 60.298 256.026 59.53C256.458 58.762 257.04 58.156 257.772 57.712C258.504 57.268 259.332 57.046 260.256 57.046C261.036 57.046 261.726 57.202 262.326 57.514C262.926 57.826 263.4 58.258 263.748 58.81L263.442 59.278V53.374H265.458V67H263.532V65.02L263.766 65.398C263.43 65.986 262.95 66.436 262.326 66.748C261.702 67.06 261.018 67.216 260.274 67.216ZM260.472 65.326C261.036 65.326 261.54 65.188 261.984 64.912C262.44 64.636 262.794 64.258 263.046 63.778C263.31 63.286 263.442 62.734 263.442 62.122C263.442 61.51 263.31 60.964 263.046 60.484C262.794 60.004 262.44 59.626 261.984 59.35C261.54 59.074 261.036 58.936 260.472 58.936C259.908 58.936 259.398 59.074 258.942 59.35C258.486 59.626 258.132 60.004 257.88 60.484C257.628 60.964 257.502 61.51 257.502 62.122C257.502 62.734 257.628 63.286 257.88 63.778C258.132 64.258 258.48 64.636 258.924 64.912C259.38 65.188 259.896 65.326 260.472 65.326Z" fill="#050711"/>
<path d="M619.334 59.9998H617.267C616.903 59.9991 616.548 60.1176 616.258 60.3373C615.967 60.557 615.757 60.8658 615.659 61.2165L613.7 68.1832C613.688 68.2264 613.661 68.2645 613.625 68.2915C613.589 68.3186 613.545 68.3332 613.5 68.3332C613.455 68.3332 613.411 68.3186 613.375 68.2915C613.339 68.2645 613.313 68.2264 613.3 68.1832L608.7 51.8165C608.688 51.7732 608.661 51.7352 608.625 51.7082C608.589 51.6811 608.545 51.6665 608.5 51.6665C608.455 51.6665 608.411 51.6811 608.375 51.7082C608.339 51.7352 608.313 51.7732 608.3 51.8165L606.342 58.7832C606.244 59.1325 606.035 59.4403 605.746 59.6598C605.457 59.8794 605.105 59.9988 604.742 59.9998H602.667" stroke="#6C8B7D" stroke-width="1.66667" stroke-linecap="round" stroke-linejoin="round"/>
<rect x="71" y="98" width="267" height="92" rx="14" fill="url(#paint0_linear_3219_8551)"/>
<path d="M87.154 130L90.962 119.57H92.166L95.974 130H94.798L93.902 127.452H89.24L88.33 130H87.154ZM89.604 126.402H93.51L91.396 120.41H91.732L89.604 126.402ZM100.367 130.168C99.63 130.168 98.9814 129.995 98.4214 129.65C97.8614 129.305 97.4227 128.838 97.1054 128.25C96.788 127.653 96.6294 126.981 96.6294 126.234C96.6294 125.487 96.788 124.82 97.1054 124.232C97.4227 123.644 97.8614 123.182 98.4214 122.846C98.9814 122.501 99.63 122.328 100.367 122.328C100.834 122.328 101.273 122.412 101.683 122.58C102.094 122.748 102.458 122.977 102.775 123.266C103.093 123.546 103.331 123.873 103.489 124.246L102.537 124.736C102.351 124.335 102.066 124.008 101.683 123.756C101.301 123.504 100.862 123.378 100.367 123.378C99.8727 123.378 99.4247 123.504 99.0234 123.756C98.6314 123.999 98.3187 124.339 98.0854 124.778C97.8614 125.207 97.7494 125.697 97.7494 126.248C97.7494 126.789 97.8614 127.279 98.0854 127.718C98.3187 128.147 98.6314 128.488 99.0234 128.74C99.4247 128.992 99.8727 129.118 100.367 129.118C100.862 129.118 101.296 128.992 101.669 128.74C102.052 128.488 102.341 128.152 102.537 127.732L103.489 128.25C103.331 128.614 103.093 128.941 102.775 129.23C102.458 129.519 102.094 129.748 101.683 129.916C101.273 130.084 100.834 130.168 100.367 130.168ZM108.202 130.084C107.53 130.084 107.012 129.888 106.648 129.496C106.284 129.104 106.102 128.544 106.102 127.816V123.546H104.716V122.496H105.066C105.383 122.496 105.635 122.393 105.822 122.188C106.009 121.973 106.102 121.707 106.102 121.39V120.76H107.152V122.496H108.804V123.546H107.152V127.816C107.152 128.068 107.189 128.292 107.264 128.488C107.339 128.675 107.465 128.824 107.642 128.936C107.829 129.048 108.076 129.104 108.384 129.104C108.459 129.104 108.547 129.099 108.65 129.09C108.753 129.081 108.841 129.071 108.916 129.062V130C108.804 130.028 108.678 130.047 108.538 130.056C108.398 130.075 108.286 130.084 108.202 130.084ZM110.76 130V122.496H111.81V130H110.76ZM110.76 121.11V119.57H111.81V121.11H110.76ZM115.961 130L113.035 122.496H114.211L116.675 129.076H116.297L118.775 122.496H119.965L117.011 130H115.961ZM124.471 130.168C123.771 130.168 123.136 130 122.567 129.664C122.007 129.319 121.563 128.847 121.237 128.25C120.91 127.653 120.747 126.976 120.747 126.22C120.747 125.464 120.905 124.797 121.223 124.218C121.54 123.63 121.969 123.168 122.511 122.832C123.061 122.496 123.677 122.328 124.359 122.328C124.9 122.328 125.381 122.431 125.801 122.636C126.23 122.832 126.594 123.103 126.893 123.448C127.191 123.784 127.42 124.167 127.579 124.596C127.737 125.016 127.817 125.45 127.817 125.898C127.817 125.991 127.812 126.099 127.803 126.22C127.793 126.332 127.779 126.449 127.761 126.57H121.419V125.59H127.159L126.655 126.01C126.739 125.497 126.678 125.039 126.473 124.638C126.277 124.227 125.992 123.905 125.619 123.672C125.245 123.429 124.825 123.308 124.359 123.308C123.892 123.308 123.458 123.429 123.057 123.672C122.665 123.915 122.357 124.255 122.133 124.694C121.909 125.123 121.82 125.637 121.867 126.234C121.82 126.831 121.913 127.354 122.147 127.802C122.389 128.241 122.716 128.581 123.127 128.824C123.547 129.067 123.995 129.188 124.471 129.188C125.021 129.188 125.483 129.057 125.857 128.796C126.23 128.535 126.533 128.208 126.767 127.816L127.663 128.292C127.513 128.628 127.285 128.941 126.977 129.23C126.669 129.51 126.3 129.739 125.871 129.916C125.451 130.084 124.984 130.168 124.471 130.168ZM136.961 130.168C136.223 130.168 135.547 130.037 134.931 129.776C134.315 129.505 133.778 129.132 133.321 128.656C132.873 128.171 132.523 127.601 132.271 126.948C132.019 126.295 131.893 125.576 131.893 124.792C131.893 124.008 132.019 123.289 132.271 122.636C132.523 121.983 132.873 121.413 133.321 120.928C133.778 120.443 134.315 120.069 134.931 119.808C135.547 119.537 136.223 119.402 136.961 119.402C137.67 119.402 138.305 119.528 138.865 119.78C139.434 120.032 139.91 120.359 140.293 120.76C140.685 121.152 140.965 121.567 141.133 122.006L140.083 122.468C139.821 121.861 139.42 121.376 138.879 121.012C138.347 120.639 137.707 120.452 136.961 120.452C136.195 120.452 135.514 120.634 134.917 120.998C134.319 121.362 133.853 121.871 133.517 122.524C133.181 123.168 133.013 123.924 133.013 124.792C133.013 125.651 133.181 126.407 133.517 127.06C133.853 127.713 134.319 128.222 134.917 128.586C135.514 128.941 136.195 129.118 136.961 129.118C137.707 129.118 138.347 128.936 138.879 128.572C139.42 128.208 139.821 127.723 140.083 127.116L141.133 127.578C140.965 128.007 140.685 128.423 140.293 128.824C139.91 129.216 139.434 129.538 138.865 129.79C138.305 130.042 137.67 130.168 136.961 130.168ZM145.018 130.168C144.542 130.168 144.117 130.079 143.744 129.902C143.37 129.715 143.076 129.463 142.862 129.146C142.647 128.829 142.54 128.465 142.54 128.054C142.54 127.662 142.624 127.307 142.792 126.99C142.96 126.663 143.221 126.388 143.576 126.164C143.93 125.94 144.383 125.781 144.934 125.688L147.874 125.198V126.15L145.186 126.598C144.644 126.691 144.252 126.864 144.01 127.116C143.776 127.368 143.66 127.667 143.66 128.012C143.66 128.348 143.79 128.633 144.052 128.866C144.322 129.099 144.668 129.216 145.088 129.216C145.601 129.216 146.049 129.109 146.432 128.894C146.814 128.67 147.113 128.371 147.328 127.998C147.542 127.625 147.65 127.209 147.65 126.752V124.848C147.65 124.4 147.486 124.036 147.16 123.756C146.833 123.476 146.408 123.336 145.886 123.336C145.428 123.336 145.027 123.453 144.682 123.686C144.336 123.91 144.08 124.204 143.912 124.568L142.96 124.05C143.1 123.733 143.319 123.443 143.618 123.182C143.926 122.921 144.276 122.715 144.668 122.566C145.06 122.407 145.466 122.328 145.886 122.328C146.436 122.328 146.922 122.435 147.342 122.65C147.771 122.865 148.102 123.163 148.336 123.546C148.578 123.919 148.7 124.353 148.7 124.848V130H147.65V128.502L147.804 128.656C147.673 128.936 147.468 129.193 147.188 129.426C146.917 129.65 146.595 129.832 146.222 129.972C145.858 130.103 145.456 130.168 145.018 130.168ZM150.859 130V119.402H151.909V130H150.859ZM154.058 130V119.402H155.108V130H154.058ZM159.862 130.168C159.143 130.168 158.513 129.986 157.972 129.622C157.43 129.258 157.038 128.763 156.796 128.138L157.678 127.718C157.892 128.175 158.191 128.539 158.574 128.81C158.966 129.081 159.395 129.216 159.862 129.216C160.31 129.216 160.688 129.109 160.996 128.894C161.304 128.67 161.458 128.381 161.458 128.026C161.458 127.765 161.383 127.559 161.234 127.41C161.084 127.251 160.912 127.13 160.716 127.046C160.52 126.962 160.347 126.901 160.198 126.864L159.12 126.556C158.429 126.36 157.93 126.085 157.622 125.73C157.314 125.375 157.16 124.965 157.16 124.498C157.16 124.059 157.272 123.677 157.496 123.35C157.72 123.023 158.023 122.771 158.406 122.594C158.788 122.417 159.213 122.328 159.68 122.328C160.314 122.328 160.888 122.496 161.402 122.832C161.924 123.159 162.293 123.616 162.508 124.204L161.612 124.624C161.425 124.204 161.154 123.877 160.8 123.644C160.454 123.401 160.067 123.28 159.638 123.28C159.218 123.28 158.882 123.387 158.63 123.602C158.378 123.817 158.252 124.087 158.252 124.414C158.252 124.666 158.317 124.867 158.448 125.016C158.578 125.165 158.728 125.277 158.896 125.352C159.073 125.427 159.227 125.483 159.358 125.52L160.604 125.884C161.21 126.061 161.682 126.337 162.018 126.71C162.363 127.083 162.536 127.522 162.536 128.026C162.536 128.437 162.419 128.805 162.186 129.132C161.962 129.459 161.649 129.715 161.248 129.902C160.846 130.079 160.384 130.168 159.862 130.168Z" fill="#4A5565"/>
<path d="M88.38 168V164.91L94.44 158.58C95.64 157.32 96.56 156.32 97.2 155.58C97.86 154.82 98.32 154.17 98.58 153.63C98.84 153.09 98.97 152.54 98.97 151.98C98.97 151.04 98.67 150.3 98.07 149.76C97.49 149.22 96.74 148.95 95.82 148.95C94.86 148.95 94.03 149.23 93.33 149.79C92.63 150.33 92.12 151.13 91.8 152.19L88.23 151.08C88.47 149.9 88.96 148.88 89.7 148.02C90.44 147.14 91.34 146.47 92.4 146.01C93.48 145.53 94.62 145.29 95.82 145.29C97.26 145.29 98.52 145.55 99.6 146.07C100.7 146.59 101.55 147.32 102.15 148.26C102.77 149.2 103.08 150.3 103.08 151.56C103.08 152.36 102.93 153.15 102.63 153.93C102.33 154.71 101.88 155.51 101.28 156.33C100.68 157.13 99.9 158.03 98.94 159.03L93.69 164.55H103.38V168H88.38ZM115.947 168V163.08H105.687V159.66L115.707 145.65H119.967V159.66H123.237V163.08H119.967V168H115.947ZM108.687 161.13L107.967 159.66H115.947V148.86L116.997 149.19L108.687 161.13Z" fill="#050711"/>
<rect x="354" y="98" width="267" height="92" rx="14" fill="url(#paint1_linear_3219_8551)"/>
<path d="M370.154 130L373.962 119.57H375.166L378.974 130H377.798L376.902 127.452H372.24L371.33 130H370.154ZM372.604 126.402H376.51L374.396 120.41H374.732L372.604 126.402ZM381.789 130L378.863 122.496H380.039L382.503 129.076H382.125L384.603 122.496H385.793L382.839 130H381.789ZM390.439 133.08C389.925 133.08 389.449 133.001 389.011 132.842C388.581 132.683 388.208 132.464 387.891 132.184C387.583 131.913 387.345 131.596 387.177 131.232L388.143 130.714C388.292 131.069 388.558 131.377 388.941 131.638C389.323 131.899 389.813 132.03 390.411 132.03C390.868 132.03 391.288 131.941 391.671 131.764C392.053 131.587 392.361 131.325 392.595 130.98C392.828 130.635 392.945 130.21 392.945 129.706V128.04L393.113 128.194C392.851 128.735 392.464 129.155 391.951 129.454C391.437 129.743 390.877 129.888 390.271 129.888C389.571 129.888 388.941 129.72 388.381 129.384C387.821 129.048 387.377 128.595 387.051 128.026C386.733 127.447 386.575 126.808 386.575 126.108C386.575 125.399 386.733 124.759 387.051 124.19C387.377 123.621 387.816 123.168 388.367 122.832C388.927 122.496 389.561 122.328 390.271 122.328C390.877 122.328 391.428 122.468 391.923 122.748C392.427 123.028 392.823 123.406 393.113 123.882L392.945 124.176V122.496H393.995V129.706C393.995 130.35 393.841 130.924 393.533 131.428C393.234 131.941 392.814 132.343 392.273 132.632C391.741 132.931 391.129 133.08 390.439 133.08ZM390.327 128.838C390.812 128.838 391.251 128.717 391.643 128.474C392.035 128.222 392.347 127.891 392.581 127.48C392.823 127.06 392.945 126.603 392.945 126.108C392.945 125.613 392.823 125.161 392.581 124.75C392.347 124.33 392.035 123.999 391.643 123.756C391.251 123.504 390.812 123.378 390.327 123.378C389.832 123.378 389.384 123.504 388.983 123.756C388.581 123.999 388.264 124.325 388.031 124.736C387.807 125.147 387.695 125.604 387.695 126.108C387.695 126.603 387.807 127.06 388.031 127.48C388.264 127.891 388.577 128.222 388.969 128.474C389.37 128.717 389.823 128.838 390.327 128.838ZM400.603 130L397.607 119.57H398.741L401.331 128.908H401.093L403.753 119.57H404.943L407.589 128.908H407.337L409.941 119.57H411.075L408.079 130H406.889L404.215 120.62H404.467L401.793 130H400.603ZM413.922 130.168C413.446 130.168 413.021 130.079 412.648 129.902C412.274 129.715 411.98 129.463 411.766 129.146C411.551 128.829 411.444 128.465 411.444 128.054C411.444 127.662 411.528 127.307 411.696 126.99C411.864 126.663 412.125 126.388 412.48 126.164C412.834 125.94 413.287 125.781 413.838 125.688L416.778 125.198V126.15L414.09 126.598C413.548 126.691 413.156 126.864 412.914 127.116C412.68 127.368 412.564 127.667 412.564 128.012C412.564 128.348 412.694 128.633 412.956 128.866C413.226 129.099 413.572 129.216 413.992 129.216C414.505 129.216 414.953 129.109 415.336 128.894C415.718 128.67 416.017 128.371 416.232 127.998C416.446 127.625 416.554 127.209 416.554 126.752V124.848C416.554 124.4 416.39 124.036 416.064 123.756C415.737 123.476 415.312 123.336 414.79 123.336C414.332 123.336 413.931 123.453 413.586 123.686C413.24 123.91 412.984 124.204 412.816 124.568L411.864 124.05C412.004 123.733 412.223 123.443 412.522 123.182C412.83 122.921 413.18 122.715 413.572 122.566C413.964 122.407 414.37 122.328 414.79 122.328C415.34 122.328 415.826 122.435 416.246 122.65C416.675 122.865 417.006 123.163 417.24 123.546C417.482 123.919 417.604 124.353 417.604 124.848V130H416.554V128.502L416.708 128.656C416.577 128.936 416.372 129.193 416.092 129.426C415.821 129.65 415.499 129.832 415.126 129.972C414.762 130.103 414.36 130.168 413.922 130.168ZM419.764 130V122.496H420.814V130H419.764ZM419.764 121.11V119.57H420.814V121.11H419.764ZM425.833 130.084C425.161 130.084 424.643 129.888 424.279 129.496C423.915 129.104 423.733 128.544 423.733 127.816V123.546H422.347V122.496H422.697C423.014 122.496 423.266 122.393 423.453 122.188C423.639 121.973 423.733 121.707 423.733 121.39V120.76H424.783V122.496H426.435V123.546H424.783V127.816C424.783 128.068 424.82 128.292 424.895 128.488C424.969 128.675 425.095 128.824 425.273 128.936C425.459 129.048 425.707 129.104 426.015 129.104C426.089 129.104 426.178 129.099 426.281 129.09C426.383 129.081 426.472 129.071 426.547 129.062V130C426.435 130.028 426.309 130.047 426.169 130.056C426.029 130.075 425.917 130.084 425.833 130.084ZM432.729 130V120.62H429.845V119.57H436.705V120.62H433.849V130H432.729ZM437.933 130V122.496H438.983V130H437.933ZM437.933 121.11V119.57H438.983V121.11H437.933ZM441.133 130V122.496H442.183V123.924L442.015 123.714C442.22 123.275 442.523 122.935 442.925 122.692C443.335 122.449 443.783 122.328 444.269 122.328C444.847 122.328 445.37 122.491 445.837 122.818C446.303 123.145 446.635 123.569 446.831 124.092L446.537 124.106C446.723 123.527 447.045 123.089 447.503 122.79C447.969 122.482 448.483 122.328 449.043 122.328C449.547 122.328 450.009 122.449 450.429 122.692C450.858 122.935 451.199 123.271 451.451 123.7C451.712 124.12 451.843 124.596 451.843 125.128V130H450.793V125.534C450.793 125.077 450.709 124.689 450.541 124.372C450.382 124.055 450.163 123.812 449.883 123.644C449.603 123.467 449.281 123.378 448.917 123.378C448.562 123.378 448.24 123.467 447.951 123.644C447.661 123.812 447.433 124.059 447.265 124.386C447.097 124.703 447.013 125.086 447.013 125.534V130H445.963V125.534C445.963 125.077 445.879 124.689 445.711 124.372C445.552 124.055 445.333 123.812 445.053 123.644C444.773 123.467 444.451 123.378 444.087 123.378C443.723 123.378 443.396 123.467 443.107 123.644C442.827 123.812 442.603 124.059 442.435 124.386C442.267 124.703 442.183 125.086 442.183 125.534V130H441.133ZM457.264 130.168C456.564 130.168 455.929 130 455.36 129.664C454.8 129.319 454.356 128.847 454.03 128.25C453.703 127.653 453.54 126.976 453.54 126.22C453.54 125.464 453.698 124.797 454.016 124.218C454.333 123.63 454.762 123.168 455.304 122.832C455.854 122.496 456.47 122.328 457.152 122.328C457.693 122.328 458.174 122.431 458.594 122.636C459.023 122.832 459.387 123.103 459.686 123.448C459.984 123.784 460.213 124.167 460.372 124.596C460.53 125.016 460.61 125.45 460.61 125.898C460.61 125.991 460.605 126.099 460.596 126.22C460.586 126.332 460.572 126.449 460.554 126.57H454.212V125.59H459.952L459.448 126.01C459.532 125.497 459.471 125.039 459.266 124.638C459.07 124.227 458.785 123.905 458.412 123.672C458.038 123.429 457.618 123.308 457.152 123.308C456.685 123.308 456.251 123.429 455.85 123.672C455.458 123.915 455.15 124.255 454.926 124.694C454.702 125.123 454.613 125.637 454.66 126.234C454.613 126.831 454.706 127.354 454.94 127.802C455.182 128.241 455.509 128.581 455.92 128.824C456.34 129.067 456.788 129.188 457.264 129.188C457.814 129.188 458.276 129.057 458.65 128.796C459.023 128.535 459.326 128.208 459.56 127.816L460.456 128.292C460.306 128.628 460.078 128.941 459.77 129.23C459.462 129.51 459.093 129.739 458.664 129.916C458.244 130.084 457.777 130.168 457.264 130.168Z" fill="#4A5565"/>
<path d="M381.34 168V163.08H371.08V159.66L381.1 145.65H385.36V159.66H388.63V163.08H385.36V168H381.34ZM374.08 161.13L373.36 159.66H381.34V148.86L382.39 149.19L374.08 161.13ZM398.539 168.36C397.359 168.36 396.229 168.14 395.149 167.7C394.089 167.26 393.169 166.64 392.389 165.84C391.629 165.02 391.109 164.05 390.829 162.93L394.369 161.67C394.709 162.69 395.259 163.45 396.019 163.95C396.779 164.43 397.619 164.67 398.539 164.67C399.299 164.67 399.969 164.51 400.549 164.19C401.149 163.85 401.609 163.39 401.929 162.81C402.249 162.21 402.409 161.52 402.409 160.74C402.409 159.96 402.239 159.28 401.899 158.7C401.579 158.12 401.129 157.67 400.549 157.35C399.969 157.01 399.299 156.84 398.539 156.84C397.759 156.84 397.049 157.01 396.409 157.35C395.789 157.69 395.339 158.18 395.059 158.82L391.729 158.07L393.499 145.65H405.679V149.1H395.119L396.649 147.33L395.389 156.69L394.219 155.73C394.779 154.91 395.459 154.31 396.259 153.93C397.079 153.55 398.069 153.36 399.229 153.36C400.709 153.36 401.989 153.68 403.069 154.32C404.169 154.96 405.019 155.83 405.619 156.93C406.219 158.03 406.519 159.3 406.519 160.74C406.519 162.18 406.169 163.48 405.469 164.64C404.769 165.8 403.819 166.71 402.619 167.37C401.419 168.03 400.059 168.36 398.539 168.36ZM416.126 168.36C414.386 168.36 412.866 167.95 411.566 167.13C410.286 166.29 409.406 165.16 408.926 163.74L411.866 162.33C412.286 163.25 412.866 163.97 413.606 164.49C414.366 165.01 415.206 165.27 416.126 165.27C416.846 165.27 417.416 165.11 417.836 164.79C418.256 164.47 418.466 164.05 418.466 163.53C418.466 163.21 418.376 162.95 418.196 162.75C418.036 162.53 417.806 162.35 417.506 162.21C417.226 162.05 416.916 161.92 416.576 161.82L413.906 161.07C412.526 160.67 411.476 160.06 410.756 159.24C410.056 158.42 409.706 157.45 409.706 156.33C409.706 155.33 409.956 154.46 410.456 153.72C410.976 152.96 411.686 152.37 412.586 151.95C413.506 151.53 414.556 151.32 415.736 151.32C417.276 151.32 418.636 151.69 419.816 152.43C420.996 153.17 421.836 154.21 422.336 155.55L419.336 156.96C419.056 156.22 418.586 155.63 417.926 155.19C417.266 154.75 416.526 154.53 415.706 154.53C415.046 154.53 414.526 154.68 414.146 154.98C413.766 155.28 413.576 155.67 413.576 156.15C413.576 156.45 413.656 156.71 413.816 156.93C413.976 157.15 414.196 157.33 414.476 157.47C414.776 157.61 415.116 157.74 415.496 157.86L418.106 158.64C419.446 159.04 420.476 159.64 421.196 160.44C421.936 161.24 422.306 162.22 422.306 163.38C422.306 164.36 422.046 165.23 421.526 165.99C421.006 166.73 420.286 167.31 419.366 167.73C418.446 168.15 417.366 168.36 416.126 168.36Z" fill="#050711"/>
<rect x="71" y="214" width="550" height="68" rx="10" fill="#F9FAFB"/>
<rect x="83" y="228" width="40" height="40" rx="20" fill="#6C8B7D"/>
<path d="M102.908 255.192C102.161 255.192 101.468 255.053 100.828 254.776C100.188 254.488 99.644 254.099 99.196 253.608C98.748 253.117 98.4173 252.552 98.204 251.912L99.804 251.24C100.092 251.976 100.513 252.541 101.068 252.936C101.623 253.331 102.263 253.528 102.988 253.528C103.415 253.528 103.788 253.464 104.108 253.336C104.428 253.197 104.673 253.005 104.844 252.76C105.025 252.515 105.116 252.232 105.116 251.912C105.116 251.475 104.993 251.128 104.748 250.872C104.503 250.616 104.14 250.413 103.66 250.264L101.42 249.56C100.524 249.283 99.8413 248.861 99.372 248.296C98.9027 247.72 98.668 247.048 98.668 246.28C98.668 245.608 98.8333 245.021 99.164 244.52C99.4947 244.008 99.948 243.608 100.524 243.32C101.111 243.032 101.777 242.888 102.524 242.888C103.239 242.888 103.889 243.016 104.476 243.272C105.063 243.517 105.564 243.859 105.98 244.296C106.407 244.733 106.716 245.24 106.908 245.816L105.34 246.504C105.105 245.875 104.737 245.389 104.236 245.048C103.745 244.707 103.175 244.536 102.524 244.536C102.129 244.536 101.783 244.605 101.484 244.744C101.185 244.872 100.951 245.064 100.78 245.32C100.62 245.565 100.54 245.853 100.54 246.184C100.54 246.568 100.663 246.909 100.908 247.208C101.153 247.507 101.527 247.731 102.028 247.88L104.108 248.536C105.057 248.824 105.772 249.24 106.252 249.784C106.732 250.317 106.972 250.984 106.972 251.784C106.972 252.445 106.796 253.032 106.444 253.544C106.103 254.056 105.628 254.461 105.02 254.76C104.412 255.048 103.708 255.192 102.908 255.192Z" fill="white"/>
<path d="M140.424 245.192C139.667 245.192 138.973 245.053 138.344 244.776C137.715 244.488 137.181 244.099 136.744 243.608C136.307 243.117 135.992 242.568 135.8 241.96L137.16 241.4C137.448 242.168 137.875 242.76 138.44 243.176C139.016 243.581 139.688 243.784 140.456 243.784C140.925 243.784 141.336 243.709 141.688 243.56C142.04 243.411 142.312 243.203 142.504 242.936C142.707 242.659 142.808 242.339 142.808 241.976C142.808 241.475 142.664 241.08 142.376 240.792C142.099 240.493 141.688 240.269 141.144 240.12L138.952 239.448C138.088 239.181 137.427 238.76 136.968 238.184C136.509 237.608 136.28 236.947 136.28 236.2C136.28 235.549 136.435 234.979 136.744 234.488C137.064 233.987 137.501 233.597 138.056 233.32C138.621 233.032 139.261 232.888 139.976 232.888C140.691 232.888 141.336 233.016 141.912 233.272C142.499 233.528 142.995 233.875 143.4 234.312C143.805 234.739 144.104 235.229 144.296 235.784L142.952 236.344C142.696 235.672 142.312 235.165 141.8 234.824C141.288 234.472 140.685 234.296 139.992 234.296C139.565 234.296 139.187 234.371 138.856 234.52C138.536 234.659 138.285 234.867 138.104 235.144C137.933 235.411 137.848 235.731 137.848 236.104C137.848 236.541 137.987 236.931 138.264 237.272C138.541 237.613 138.963 237.875 139.528 238.056L141.528 238.648C142.467 238.936 143.176 239.347 143.656 239.88C144.136 240.413 144.376 241.075 144.376 241.864C144.376 242.515 144.205 243.091 143.864 243.592C143.533 244.093 143.069 244.488 142.472 244.776C141.885 245.053 141.203 245.192 140.424 245.192ZM148.789 245.192C148.224 245.192 147.723 245.091 147.285 244.888C146.859 244.675 146.523 244.387 146.277 244.024C146.032 243.651 145.909 243.224 145.909 242.744C145.909 242.285 146.005 241.875 146.197 241.512C146.4 241.139 146.709 240.824 147.125 240.568C147.552 240.312 148.085 240.131 148.725 240.024L151.925 239.496V240.744L149.061 241.224C148.507 241.32 148.101 241.496 147.845 241.752C147.6 242.008 147.477 242.323 147.477 242.696C147.477 243.048 147.616 243.341 147.893 243.576C148.181 243.811 148.539 243.928 148.965 243.928C149.509 243.928 149.979 243.816 150.373 243.592C150.779 243.357 151.093 243.043 151.317 242.648C151.552 242.253 151.669 241.816 151.669 241.336V239.144C151.669 238.675 151.493 238.296 151.141 238.008C150.8 237.709 150.347 237.56 149.781 237.56C149.291 237.56 148.853 237.688 148.469 237.944C148.096 238.189 147.819 238.52 147.637 238.936L146.341 238.264C146.501 237.869 146.757 237.517 147.109 237.208C147.461 236.888 147.872 236.637 148.341 236.456C148.811 236.275 149.301 236.184 149.813 236.184C150.475 236.184 151.056 236.312 151.557 236.568C152.059 236.813 152.448 237.16 152.725 237.608C153.013 238.045 153.157 238.557 153.157 239.144V245H151.701V243.368L151.973 243.464C151.792 243.805 151.547 244.104 151.237 244.36C150.928 244.616 150.565 244.819 150.149 244.968C149.733 245.117 149.28 245.192 148.789 245.192ZM155.465 245V236.376H156.921V237.96L156.761 237.736C156.963 237.245 157.273 236.883 157.689 236.648C158.105 236.403 158.611 236.28 159.209 236.28H159.737V237.688H158.985C158.377 237.688 157.886 237.88 157.513 238.264C157.139 238.637 156.953 239.171 156.953 239.864V245H155.465ZM163.586 245.192C163.021 245.192 162.52 245.091 162.082 244.888C161.656 244.675 161.32 244.387 161.074 244.024C160.829 243.651 160.706 243.224 160.706 242.744C160.706 242.285 160.802 241.875 160.994 241.512C161.197 241.139 161.506 240.824 161.922 240.568C162.349 240.312 162.882 240.131 163.522 240.024L166.722 239.496V240.744L163.858 241.224C163.304 241.32 162.898 241.496 162.642 241.752C162.397 242.008 162.274 242.323 162.274 242.696C162.274 243.048 162.413 243.341 162.69 243.576C162.978 243.811 163.336 243.928 163.762 243.928C164.306 243.928 164.776 243.816 165.17 243.592C165.576 243.357 165.89 243.043 166.114 242.648C166.349 242.253 166.466 241.816 166.466 241.336V239.144C166.466 238.675 166.29 238.296 165.938 238.008C165.597 237.709 165.144 237.56 164.578 237.56C164.088 237.56 163.65 237.688 163.266 237.944C162.893 238.189 162.616 238.52 162.434 238.936L161.138 238.264C161.298 237.869 161.554 237.517 161.906 237.208C162.258 236.888 162.669 236.637 163.138 236.456C163.608 236.275 164.098 236.184 164.61 236.184C165.272 236.184 165.853 236.312 166.354 236.568C166.856 236.813 167.245 237.16 167.522 237.608C167.81 238.045 167.954 238.557 167.954 239.144V245H166.498V243.368L166.77 243.464C166.589 243.805 166.344 244.104 166.034 244.36C165.725 244.616 165.362 244.819 164.946 244.968C164.53 245.117 164.077 245.192 163.586 245.192ZM170.261 245V232.888H171.749V238.056L171.477 237.912C171.691 237.368 172.032 236.947 172.501 236.648C172.981 236.339 173.541 236.184 174.181 236.184C174.8 236.184 175.349 236.323 175.829 236.6C176.32 236.877 176.704 237.261 176.981 237.752C177.269 238.243 177.413 238.797 177.413 239.416V245H175.909V239.896C175.909 239.416 175.819 239.011 175.637 238.68C175.467 238.349 175.227 238.093 174.917 237.912C174.608 237.72 174.251 237.624 173.845 237.624C173.451 237.624 173.093 237.72 172.773 237.912C172.453 238.093 172.203 238.355 172.021 238.696C171.84 239.027 171.749 239.427 171.749 239.896V245H170.261ZM182.484 245V233.08H183.924L188.388 239.432H187.652L192.084 233.08H193.524V245H191.94V235.064L192.5 235.24L188.068 241.48H187.94L183.556 235.24L184.052 235.064V245H182.484ZM196.604 245V243.08H198.156V245H196.604Z" fill="#050711"/>
<path d="M141.146 266.168C140.418 266.168 139.737 266.037 139.102 265.776C138.477 265.505 137.926 265.132 137.45 264.656C136.974 264.171 136.601 263.601 136.33 262.948C136.059 262.285 135.924 261.562 135.924 260.778C135.924 259.994 136.059 259.275 136.33 258.622C136.601 257.959 136.974 257.39 137.45 256.914C137.926 256.429 138.477 256.055 139.102 255.794C139.737 255.533 140.418 255.402 141.146 255.402C141.874 255.402 142.551 255.537 143.176 255.808C143.811 256.069 144.366 256.443 144.842 256.928C145.318 257.404 145.691 257.969 145.962 258.622C146.233 259.275 146.368 259.994 146.368 260.778C146.368 261.562 146.233 262.285 145.962 262.948C145.691 263.601 145.318 264.171 144.842 264.656C144.366 265.132 143.811 265.505 143.176 265.776C142.551 266.037 141.874 266.168 141.146 266.168ZM141.146 265.118C141.753 265.118 142.303 265.006 142.798 264.782C143.302 264.558 143.736 264.245 144.1 263.844C144.464 263.443 144.744 262.981 144.94 262.458C145.145 261.935 145.248 261.375 145.248 260.778C145.248 260.19 145.145 259.635 144.94 259.112C144.744 258.589 144.464 258.127 144.1 257.726C143.736 257.325 143.302 257.012 142.798 256.788C142.303 256.564 141.753 256.452 141.146 256.452C140.539 256.452 139.984 256.564 139.48 256.788C138.985 257.012 138.556 257.325 138.192 257.726C137.828 258.127 137.543 258.589 137.338 259.112C137.142 259.635 137.044 260.19 137.044 260.778C137.044 261.375 137.142 261.935 137.338 262.458C137.543 262.981 137.828 263.443 138.192 263.844C138.556 264.245 138.99 264.558 139.494 264.782C139.998 265.006 140.549 265.118 141.146 265.118ZM148.369 266V258.496H149.419V259.952L149.181 259.896C149.368 259.411 149.671 259.028 150.091 258.748C150.52 258.468 151.015 258.328 151.575 258.328C152.107 258.328 152.583 258.449 153.003 258.692C153.432 258.935 153.768 259.271 154.011 259.7C154.263 260.12 154.389 260.596 154.389 261.128V266H153.339V261.534C153.339 261.077 153.255 260.689 153.087 260.372C152.928 260.055 152.7 259.812 152.401 259.644C152.112 259.467 151.776 259.378 151.393 259.378C151.01 259.378 150.67 259.467 150.371 259.644C150.072 259.812 149.839 260.059 149.671 260.386C149.503 260.703 149.419 261.086 149.419 261.534V266H148.369ZM163.687 266.168C162.95 266.168 162.273 266.037 161.657 265.776C161.041 265.505 160.505 265.132 160.047 264.656C159.599 264.171 159.249 263.601 158.997 262.948C158.745 262.295 158.619 261.576 158.619 260.792C158.619 260.008 158.745 259.289 158.997 258.636C159.249 257.983 159.599 257.413 160.047 256.928C160.505 256.443 161.041 256.069 161.657 255.808C162.273 255.537 162.95 255.402 163.687 255.402C164.397 255.402 165.031 255.528 165.591 255.78C166.161 256.032 166.637 256.359 167.019 256.76C167.411 257.152 167.691 257.567 167.859 258.006L166.809 258.468C166.548 257.861 166.147 257.376 165.605 257.012C165.073 256.639 164.434 256.452 163.687 256.452C162.922 256.452 162.241 256.634 161.643 256.998C161.046 257.362 160.579 257.871 160.243 258.524C159.907 259.168 159.739 259.924 159.739 260.792C159.739 261.651 159.907 262.407 160.243 263.06C160.579 263.713 161.046 264.222 161.643 264.586C162.241 264.941 162.922 265.118 163.687 265.118C164.434 265.118 165.073 264.936 165.605 264.572C166.147 264.208 166.548 263.723 166.809 263.116L167.859 263.578C167.691 264.007 167.411 264.423 167.019 264.824C166.637 265.216 166.161 265.538 165.591 265.79C165.031 266.042 164.397 266.168 163.687 266.168ZM171.744 266.168C171.268 266.168 170.843 266.079 170.47 265.902C170.097 265.715 169.803 265.463 169.588 265.146C169.373 264.829 169.266 264.465 169.266 264.054C169.266 263.662 169.35 263.307 169.518 262.99C169.686 262.663 169.947 262.388 170.302 262.164C170.657 261.94 171.109 261.781 171.66 261.688L174.6 261.198V262.15L171.912 262.598C171.371 262.691 170.979 262.864 170.736 263.116C170.503 263.368 170.386 263.667 170.386 264.012C170.386 264.348 170.517 264.633 170.778 264.866C171.049 265.099 171.394 265.216 171.814 265.216C172.327 265.216 172.775 265.109 173.158 264.894C173.541 264.67 173.839 264.371 174.054 263.998C174.269 263.625 174.376 263.209 174.376 262.752V260.848C174.376 260.4 174.213 260.036 173.886 259.756C173.559 259.476 173.135 259.336 172.612 259.336C172.155 259.336 171.753 259.453 171.408 259.686C171.063 259.91 170.806 260.204 170.638 260.568L169.686 260.05C169.826 259.733 170.045 259.443 170.344 259.182C170.652 258.921 171.002 258.715 171.394 258.566C171.786 258.407 172.192 258.328 172.612 258.328C173.163 258.328 173.648 258.435 174.068 258.65C174.497 258.865 174.829 259.163 175.062 259.546C175.305 259.919 175.426 260.353 175.426 260.848V266H174.376V264.502L174.53 264.656C174.399 264.936 174.194 265.193 173.914 265.426C173.643 265.65 173.321 265.832 172.948 265.972C172.584 266.103 172.183 266.168 171.744 266.168ZM177.586 266V255.402H178.636V266H177.586ZM180.785 266V255.402H181.835V266H180.785Z" fill="#6A7282"/>
<path d="M582.116 254.168C581.565 254.168 581.052 254.07 580.576 253.874C580.1 253.678 579.689 253.403 579.344 253.048C578.999 252.684 578.742 252.255 578.574 251.76L579.736 251.284C579.932 251.807 580.24 252.213 580.66 252.502C581.08 252.791 581.565 252.936 582.116 252.936C582.545 252.936 582.928 252.852 583.264 252.684C583.6 252.516 583.861 252.273 584.048 251.956C584.244 251.639 584.342 251.256 584.342 250.808C584.342 250.351 584.244 249.968 584.048 249.66C583.861 249.343 583.6 249.1 583.264 248.932C582.928 248.764 582.541 248.68 582.102 248.68C581.962 248.68 581.808 248.689 581.64 248.708C581.481 248.727 581.346 248.755 581.234 248.792L580.94 248.162L583.726 244.76H579.106V243.57H585.28V244.718L582.62 247.994L582.536 247.63C583.161 247.649 583.712 247.793 584.188 248.064C584.664 248.335 585.037 248.703 585.308 249.17C585.579 249.627 585.714 250.164 585.714 250.78C585.714 251.415 585.56 251.989 585.252 252.502C584.944 253.015 584.519 253.421 583.978 253.72C583.437 254.019 582.816 254.168 582.116 254.168ZM588.085 254V252.32H589.443V254H588.085ZM588.085 248.134V246.454H589.443V248.134H588.085ZM591.744 254V253.048L594.628 249.926C595.198 249.319 595.65 248.82 595.986 248.428C596.332 248.036 596.584 247.686 596.742 247.378C596.901 247.07 596.98 246.743 596.98 246.398C596.98 245.829 596.812 245.39 596.476 245.082C596.14 244.774 595.697 244.62 595.146 244.62C594.586 244.62 594.11 244.783 593.718 245.11C593.326 245.427 593.056 245.88 592.906 246.468L591.66 246.146C591.782 245.586 592.006 245.101 592.332 244.69C592.659 244.279 593.065 243.962 593.55 243.738C594.036 243.514 594.568 243.402 595.146 243.402C595.781 243.402 596.336 243.528 596.812 243.78C597.298 244.023 597.676 244.363 597.946 244.802C598.226 245.241 598.366 245.749 598.366 246.328C598.366 246.711 598.287 247.084 598.128 247.448C597.97 247.812 597.736 248.199 597.428 248.61C597.12 249.011 596.719 249.478 596.224 250.01L593.648 252.81H598.59V254H591.744ZM604.958 254V251.592H599.834V250.458L604.93 243.57H606.246V250.458H607.604V251.592H606.246V254H604.958ZM600.87 250.948L600.674 250.458H604.958V244.718L605.364 244.83L600.87 250.948Z" fill="#050711"/>
<rect x="71" y="294" width="550" height="68" rx="10" fill="#F9FAFB"/>
<rect x="83" y="308" width="40" height="40" rx="20" fill="#6C8B7D"/>
<path d="M100.204 335V333.24H100.892C101.425 333.24 101.852 333.085 102.172 332.776C102.492 332.456 102.652 332.029 102.652 331.496V323.08H104.524V331.432C104.524 332.157 104.375 332.787 104.076 333.32C103.788 333.853 103.367 334.269 102.812 334.568C102.268 334.856 101.628 335 100.892 335H100.204Z" fill="white"/>
<path d="M135.8 325V323.48H136.456C137.021 323.48 137.469 323.315 137.8 322.984C138.131 322.643 138.296 322.184 138.296 321.608V313.08H139.88V321.576C139.88 322.269 139.736 322.872 139.448 323.384C139.171 323.896 138.776 324.296 138.264 324.584C137.752 324.861 137.149 325 136.456 325H135.8ZM146.42 325.192C145.588 325.192 144.836 325 144.164 324.616C143.492 324.221 142.959 323.683 142.564 323C142.169 322.317 141.972 321.544 141.972 320.68C141.972 319.816 142.164 319.048 142.548 318.376C142.943 317.704 143.476 317.171 144.148 316.776C144.82 316.381 145.577 316.184 146.42 316.184C147.252 316.184 148.004 316.381 148.676 316.776C149.348 317.16 149.876 317.688 150.26 318.36C150.655 319.032 150.852 319.805 150.852 320.68C150.852 321.555 150.649 322.333 150.244 323.016C149.839 323.688 149.3 324.221 148.628 324.616C147.967 325 147.231 325.192 146.42 325.192ZM146.42 323.752C146.953 323.752 147.433 323.619 147.86 323.352C148.297 323.085 148.639 322.717 148.884 322.248C149.14 321.779 149.268 321.256 149.268 320.68C149.268 320.093 149.14 319.576 148.884 319.128C148.639 318.669 148.297 318.307 147.86 318.04C147.433 317.763 146.953 317.624 146.42 317.624C145.876 317.624 145.385 317.763 144.948 318.04C144.521 318.307 144.18 318.669 143.924 319.128C143.668 319.576 143.54 320.093 143.54 320.68C143.54 321.256 143.668 321.779 143.924 322.248C144.18 322.717 144.521 323.085 144.948 323.352C145.385 323.619 145.876 323.752 146.42 323.752ZM152.793 325V312.888H154.281V318.056L154.009 317.912C154.222 317.368 154.563 316.947 155.033 316.648C155.513 316.339 156.073 316.184 156.713 316.184C157.331 316.184 157.881 316.323 158.361 316.6C158.851 316.877 159.235 317.261 159.513 317.752C159.801 318.243 159.945 318.797 159.945 319.416V325H158.441V319.896C158.441 319.416 158.35 319.011 158.169 318.68C157.998 318.349 157.758 318.093 157.449 317.912C157.139 317.72 156.782 317.624 156.377 317.624C155.982 317.624 155.625 317.72 155.305 317.912C154.985 318.093 154.734 318.355 154.553 318.696C154.371 319.027 154.281 319.427 154.281 319.896V325H152.793ZM162.074 325V316.376H163.53V318.056L163.29 317.912C163.503 317.368 163.845 316.947 164.314 316.648C164.794 316.339 165.354 316.184 165.994 316.184C166.613 316.184 167.162 316.323 167.642 316.6C168.133 316.877 168.517 317.261 168.794 317.752C169.082 318.243 169.226 318.797 169.226 319.416V325H167.722V319.896C167.722 319.416 167.637 319.011 167.466 318.68C167.295 318.349 167.05 318.093 166.73 317.912C166.421 317.72 166.063 317.624 165.658 317.624C165.253 317.624 164.89 317.72 164.57 317.912C164.261 318.093 164.015 318.355 163.834 318.696C163.653 319.027 163.562 319.427 163.562 319.896V325H162.074ZM174.297 325V313.08H178.201C179.406 313.08 180.457 313.325 181.353 313.816C182.249 314.307 182.942 315 183.433 315.896C183.923 316.781 184.169 317.827 184.169 319.032C184.169 320.227 183.923 321.272 183.433 322.168C182.942 323.064 182.249 323.763 181.353 324.264C180.457 324.755 179.406 325 178.201 325H174.297ZM175.865 323.56H178.217C179.102 323.56 179.865 323.373 180.505 323C181.155 322.627 181.657 322.104 182.009 321.432C182.361 320.749 182.537 319.949 182.537 319.032C182.537 318.104 182.355 317.304 181.993 316.632C181.641 315.96 181.139 315.443 180.489 315.08C179.849 314.707 179.091 314.52 178.217 314.52H175.865V323.56ZM186.588 325V323.08H188.14V325H186.588Z" fill="#050711"/>
<path d="M135.154 346L138.962 335.57H140.166L143.974 346H142.798L141.902 343.452H137.24L136.33 346H135.154ZM137.604 342.402H141.51L139.396 336.41H139.732L137.604 342.402ZM146.789 346L143.863 338.496H145.039L147.503 345.076H147.125L149.603 338.496H150.793L147.839 346H146.789ZM153.916 346.168C153.44 346.168 153.015 346.079 152.642 345.902C152.269 345.715 151.975 345.463 151.76 345.146C151.545 344.829 151.438 344.465 151.438 344.054C151.438 343.662 151.522 343.307 151.69 342.99C151.858 342.663 152.119 342.388 152.474 342.164C152.829 341.94 153.281 341.781 153.832 341.688L156.772 341.198V342.15L154.084 342.598C153.543 342.691 153.151 342.864 152.908 343.116C152.675 343.368 152.558 343.667 152.558 344.012C152.558 344.348 152.689 344.633 152.95 344.866C153.221 345.099 153.566 345.216 153.986 345.216C154.499 345.216 154.947 345.109 155.33 344.894C155.713 344.67 156.011 344.371 156.226 343.998C156.441 343.625 156.548 343.209 156.548 342.752V340.848C156.548 340.4 156.385 340.036 156.058 339.756C155.731 339.476 155.307 339.336 154.784 339.336C154.327 339.336 153.925 339.453 153.58 339.686C153.235 339.91 152.978 340.204 152.81 340.568L151.858 340.05C151.998 339.733 152.217 339.443 152.516 339.182C152.824 338.921 153.174 338.715 153.566 338.566C153.958 338.407 154.364 338.328 154.784 338.328C155.335 338.328 155.82 338.435 156.24 338.65C156.669 338.865 157.001 339.163 157.234 339.546C157.477 339.919 157.598 340.353 157.598 340.848V346H156.548V344.502L156.702 344.656C156.571 344.936 156.366 345.193 156.086 345.426C155.815 345.65 155.493 345.832 155.12 345.972C154.756 346.103 154.355 346.168 153.916 346.168ZM159.758 346V338.496H160.808V346H159.758ZM159.758 337.11V335.57H160.808V337.11H159.758ZM162.957 346V335.402H164.007V346H162.957ZM168.326 346.168C167.85 346.168 167.425 346.079 167.052 345.902C166.679 345.715 166.385 345.463 166.17 345.146C165.955 344.829 165.848 344.465 165.848 344.054C165.848 343.662 165.932 343.307 166.1 342.99C166.268 342.663 166.529 342.388 166.884 342.164C167.239 341.94 167.691 341.781 168.242 341.688L171.182 341.198V342.15L168.494 342.598C167.953 342.691 167.561 342.864 167.318 343.116C167.085 343.368 166.968 343.667 166.968 344.012C166.968 344.348 167.099 344.633 167.36 344.866C167.631 345.099 167.976 345.216 168.396 345.216C168.909 345.216 169.357 345.109 169.74 344.894C170.123 344.67 170.421 344.371 170.636 343.998C170.851 343.625 170.958 343.209 170.958 342.752V340.848C170.958 340.4 170.795 340.036 170.468 339.756C170.141 339.476 169.717 339.336 169.194 339.336C168.737 339.336 168.335 339.453 167.99 339.686C167.645 339.91 167.388 340.204 167.22 340.568L166.268 340.05C166.408 339.733 166.627 339.443 166.926 339.182C167.234 338.921 167.584 338.715 167.976 338.566C168.368 338.407 168.774 338.328 169.194 338.328C169.745 338.328 170.23 338.435 170.65 338.65C171.079 338.865 171.411 339.163 171.644 339.546C171.887 339.919 172.008 340.353 172.008 340.848V346H170.958V344.502L171.112 344.656C170.981 344.936 170.776 345.193 170.496 345.426C170.225 345.65 169.903 345.832 169.53 345.972C169.166 346.103 168.765 346.168 168.326 346.168ZM177.962 346.168C177.318 346.168 176.735 346.023 176.212 345.734C175.699 345.435 175.311 345.015 175.05 344.474L175.218 344.32V346H174.168V335.402H175.218V340.176L175.05 339.882C175.349 339.406 175.745 339.028 176.24 338.748C176.744 338.468 177.318 338.328 177.962 338.328C178.671 338.328 179.301 338.501 179.852 338.846C180.412 339.182 180.851 339.644 181.168 340.232C181.495 340.82 181.658 341.492 181.658 342.248C181.658 342.995 181.495 343.667 181.168 344.264C180.851 344.852 180.412 345.319 179.852 345.664C179.301 346 178.671 346.168 177.962 346.168ZM177.906 345.118C178.41 345.118 178.858 344.992 179.25 344.74C179.651 344.488 179.964 344.147 180.188 343.718C180.421 343.279 180.538 342.789 180.538 342.248C180.538 341.697 180.421 341.207 180.188 340.778C179.964 340.349 179.651 340.008 179.25 339.756C178.858 339.504 178.41 339.378 177.906 339.378C177.402 339.378 176.945 339.504 176.534 339.756C176.133 340.008 175.811 340.353 175.568 340.792C175.335 341.221 175.218 341.707 175.218 342.248C175.218 342.789 175.335 343.279 175.568 343.718C175.811 344.147 176.133 344.488 176.534 344.74C176.945 344.992 177.402 345.118 177.906 345.118ZM183.506 346V335.402H184.556V346H183.506ZM190.121 346.168C189.421 346.168 188.786 346 188.217 345.664C187.657 345.319 187.214 344.847 186.887 344.25C186.56 343.653 186.397 342.976 186.397 342.22C186.397 341.464 186.556 340.797 186.873 340.218C187.19 339.63 187.62 339.168 188.161 338.832C188.712 338.496 189.328 338.328 190.009 338.328C190.55 338.328 191.031 338.431 191.451 338.636C191.88 338.832 192.244 339.103 192.543 339.448C192.842 339.784 193.07 340.167 193.229 340.596C193.388 341.016 193.467 341.45 193.467 341.898C193.467 341.991 193.462 342.099 193.453 342.22C193.444 342.332 193.43 342.449 193.411 342.57H187.069V341.59H192.809L192.305 342.01C192.389 341.497 192.328 341.039 192.123 340.638C191.927 340.227 191.642 339.905 191.269 339.672C190.896 339.429 190.476 339.308 190.009 339.308C189.542 339.308 189.108 339.429 188.707 339.672C188.315 339.915 188.007 340.255 187.783 340.694C187.559 341.123 187.47 341.637 187.517 342.234C187.47 342.831 187.564 343.354 187.797 343.802C188.04 344.241 188.366 344.581 188.777 344.824C189.197 345.067 189.645 345.188 190.121 345.188C190.672 345.188 191.134 345.057 191.507 344.796C191.88 344.535 192.184 344.208 192.417 343.816L193.313 344.292C193.164 344.628 192.935 344.941 192.627 345.23C192.319 345.51 191.95 345.739 191.521 345.916C191.101 346.084 190.634 346.168 190.121 346.168Z" fill="#6A7282"/>
<path d="M597.106 330.822V329.632H607.886V330.822H597.106Z" fill="#050711"/>
<rect x="71" y="374" width="550" height="68" rx="10" fill="#F9FAFB"/>
<rect x="83" y="388" width="40" height="40" rx="20" fill="#6C8B7D"/>
<path d="M99.232 415V403.08H107.088V404.76H101.12V408.184H106.768V409.864H101.12V413.32H107.088V415H99.232Z" fill="white"/>
<path d="M136.328 405V393.08H144.088V394.52H137.896V398.296H143.768V399.736H137.896V403.56H144.088V405H136.328ZM145.855 405V396.376H147.311V398.136L147.103 397.864C147.316 397.32 147.658 396.904 148.127 396.616C148.596 396.328 149.124 396.184 149.711 396.184C150.383 396.184 150.986 396.371 151.519 396.744C152.063 397.117 152.436 397.608 152.639 398.216L152.223 398.232C152.447 397.56 152.826 397.053 153.359 396.712C153.892 396.36 154.484 396.184 155.135 396.184C155.732 396.184 156.271 396.323 156.751 396.6C157.242 396.877 157.631 397.261 157.919 397.752C158.207 398.243 158.351 398.797 158.351 399.416V405H156.847V399.896C156.847 399.416 156.762 399.011 156.591 398.68C156.42 398.349 156.186 398.093 155.887 397.912C155.599 397.72 155.258 397.624 154.863 397.624C154.479 397.624 154.132 397.72 153.823 397.912C153.524 398.093 153.284 398.355 153.103 398.696C152.932 399.027 152.847 399.427 152.847 399.896V405H151.343V399.896C151.343 399.416 151.258 399.011 151.087 398.68C150.916 398.349 150.682 398.093 150.383 397.912C150.095 397.72 149.754 397.624 149.359 397.624C148.975 397.624 148.628 397.72 148.319 397.912C148.02 398.093 147.78 398.355 147.599 398.696C147.428 399.027 147.343 399.427 147.343 399.896V405H145.855ZM160.465 405V396.376H161.921V398.136L161.713 397.864C161.926 397.32 162.267 396.904 162.737 396.616C163.206 396.328 163.734 396.184 164.321 396.184C164.993 396.184 165.595 396.371 166.129 396.744C166.673 397.117 167.046 397.608 167.249 398.216L166.833 398.232C167.057 397.56 167.435 397.053 167.969 396.712C168.502 396.36 169.094 396.184 169.745 396.184C170.342 396.184 170.881 396.323 171.361 396.6C171.851 396.877 172.241 397.261 172.529 397.752C172.817 398.243 172.961 398.797 172.961 399.416V405H171.457V399.896C171.457 399.416 171.371 399.011 171.201 398.68C171.03 398.349 170.795 398.093 170.497 397.912C170.209 397.72 169.867 397.624 169.473 397.624C169.089 397.624 168.742 397.72 168.433 397.912C168.134 398.093 167.894 398.355 167.713 398.696C167.542 399.027 167.457 399.427 167.457 399.896V405H165.953V399.896C165.953 399.416 165.867 399.011 165.697 398.68C165.526 398.349 165.291 398.093 164.993 397.912C164.705 397.72 164.363 397.624 163.969 397.624C163.585 397.624 163.238 397.72 162.929 397.912C162.63 398.093 162.39 398.355 162.209 398.696C162.038 399.027 161.953 399.427 161.953 399.896V405H160.465ZM177.602 405.192C177.037 405.192 176.535 405.091 176.098 404.888C175.671 404.675 175.335 404.387 175.09 404.024C174.845 403.651 174.722 403.224 174.722 402.744C174.722 402.285 174.818 401.875 175.01 401.512C175.213 401.139 175.522 400.824 175.938 400.568C176.365 400.312 176.898 400.131 177.538 400.024L180.738 399.496V400.744L177.874 401.224C177.319 401.32 176.914 401.496 176.658 401.752C176.413 402.008 176.29 402.323 176.29 402.696C176.29 403.048 176.429 403.341 176.706 403.576C176.994 403.811 177.351 403.928 177.778 403.928C178.322 403.928 178.791 403.816 179.186 403.592C179.591 403.357 179.906 403.043 180.13 402.648C180.365 402.253 180.482 401.816 180.482 401.336V399.144C180.482 398.675 180.306 398.296 179.954 398.008C179.613 397.709 179.159 397.56 178.594 397.56C178.103 397.56 177.666 397.688 177.282 397.944C176.909 398.189 176.631 398.52 176.45 398.936L175.154 398.264C175.314 397.869 175.57 397.517 175.922 397.208C176.274 396.888 176.685 396.637 177.154 396.456C177.623 396.275 178.114 396.184 178.626 396.184C179.287 396.184 179.869 396.312 180.37 396.568C180.871 396.813 181.261 397.16 181.538 397.608C181.826 398.045 181.97 398.557 181.97 399.144V405H180.514V403.368L180.786 403.464C180.605 403.805 180.359 404.104 180.05 404.36C179.741 404.616 179.378 404.819 178.962 404.968C178.546 405.117 178.093 405.192 177.602 405.192ZM187.219 405V393.08H188.787V403.56H194.019V405H187.219ZM196.213 405V403.08H197.765V405H196.213Z" fill="#050711"/>
<path d="M141.146 426.168C140.418 426.168 139.737 426.037 139.102 425.776C138.477 425.505 137.926 425.132 137.45 424.656C136.974 424.171 136.601 423.601 136.33 422.948C136.059 422.285 135.924 421.562 135.924 420.778C135.924 419.994 136.059 419.275 136.33 418.622C136.601 417.959 136.974 417.39 137.45 416.914C137.926 416.429 138.477 416.055 139.102 415.794C139.737 415.533 140.418 415.402 141.146 415.402C141.874 415.402 142.551 415.537 143.176 415.808C143.811 416.069 144.366 416.443 144.842 416.928C145.318 417.404 145.691 417.969 145.962 418.622C146.233 419.275 146.368 419.994 146.368 420.778C146.368 421.562 146.233 422.285 145.962 422.948C145.691 423.601 145.318 424.171 144.842 424.656C144.366 425.132 143.811 425.505 143.176 425.776C142.551 426.037 141.874 426.168 141.146 426.168ZM141.146 425.118C141.753 425.118 142.303 425.006 142.798 424.782C143.302 424.558 143.736 424.245 144.1 423.844C144.464 423.443 144.744 422.981 144.94 422.458C145.145 421.935 145.248 421.375 145.248 420.778C145.248 420.19 145.145 419.635 144.94 419.112C144.744 418.589 144.464 418.127 144.1 417.726C143.736 417.325 143.302 417.012 142.798 416.788C142.303 416.564 141.753 416.452 141.146 416.452C140.539 416.452 139.984 416.564 139.48 416.788C138.985 417.012 138.556 417.325 138.192 417.726C137.828 418.127 137.543 418.589 137.338 419.112C137.142 419.635 137.044 420.19 137.044 420.778C137.044 421.375 137.142 421.935 137.338 422.458C137.543 422.981 137.828 423.443 138.192 423.844C138.556 424.245 138.99 424.558 139.494 424.782C139.998 425.006 140.549 425.118 141.146 425.118ZM148.369 426V418.496H149.419V419.952L149.181 419.896C149.368 419.411 149.671 419.028 150.091 418.748C150.52 418.468 151.015 418.328 151.575 418.328C152.107 418.328 152.583 418.449 153.003 418.692C153.432 418.935 153.768 419.271 154.011 419.7C154.263 420.12 154.389 420.596 154.389 421.128V426H153.339V421.534C153.339 421.077 153.255 420.689 153.087 420.372C152.928 420.055 152.7 419.812 152.401 419.644C152.112 419.467 151.776 419.378 151.393 419.378C151.01 419.378 150.67 419.467 150.371 419.644C150.072 419.812 149.839 420.059 149.671 420.386C149.503 420.703 149.419 421.086 149.419 421.534V426H148.369ZM163.687 426.168C162.95 426.168 162.273 426.037 161.657 425.776C161.041 425.505 160.505 425.132 160.047 424.656C159.599 424.171 159.249 423.601 158.997 422.948C158.745 422.295 158.619 421.576 158.619 420.792C158.619 420.008 158.745 419.289 158.997 418.636C159.249 417.983 159.599 417.413 160.047 416.928C160.505 416.443 161.041 416.069 161.657 415.808C162.273 415.537 162.95 415.402 163.687 415.402C164.397 415.402 165.031 415.528 165.591 415.78C166.161 416.032 166.637 416.359 167.019 416.76C167.411 417.152 167.691 417.567 167.859 418.006L166.809 418.468C166.548 417.861 166.147 417.376 165.605 417.012C165.073 416.639 164.434 416.452 163.687 416.452C162.922 416.452 162.241 416.634 161.643 416.998C161.046 417.362 160.579 417.871 160.243 418.524C159.907 419.168 159.739 419.924 159.739 420.792C159.739 421.651 159.907 422.407 160.243 423.06C160.579 423.713 161.046 424.222 161.643 424.586C162.241 424.941 162.922 425.118 163.687 425.118C164.434 425.118 165.073 424.936 165.605 424.572C166.147 424.208 166.548 423.723 166.809 423.116L167.859 423.578C167.691 424.007 167.411 424.423 167.019 424.824C166.637 425.216 166.161 425.538 165.591 425.79C165.031 426.042 164.397 426.168 163.687 426.168ZM171.744 426.168C171.268 426.168 170.843 426.079 170.47 425.902C170.097 425.715 169.803 425.463 169.588 425.146C169.373 424.829 169.266 424.465 169.266 424.054C169.266 423.662 169.35 423.307 169.518 422.99C169.686 422.663 169.947 422.388 170.302 422.164C170.657 421.94 171.109 421.781 171.66 421.688L174.6 421.198V422.15L171.912 422.598C171.371 422.691 170.979 422.864 170.736 423.116C170.503 423.368 170.386 423.667 170.386 424.012C170.386 424.348 170.517 424.633 170.778 424.866C171.049 425.099 171.394 425.216 171.814 425.216C172.327 425.216 172.775 425.109 173.158 424.894C173.541 424.67 173.839 424.371 174.054 423.998C174.269 423.625 174.376 423.209 174.376 422.752V420.848C174.376 420.4 174.213 420.036 173.886 419.756C173.559 419.476 173.135 419.336 172.612 419.336C172.155 419.336 171.753 419.453 171.408 419.686C171.063 419.91 170.806 420.204 170.638 420.568L169.686 420.05C169.826 419.733 170.045 419.443 170.344 419.182C170.652 418.921 171.002 418.715 171.394 418.566C171.786 418.407 172.192 418.328 172.612 418.328C173.163 418.328 173.648 418.435 174.068 418.65C174.497 418.865 174.829 419.163 175.062 419.546C175.305 419.919 175.426 420.353 175.426 420.848V426H174.376V424.502L174.53 424.656C174.399 424.936 174.194 425.193 173.914 425.426C173.643 425.65 173.321 425.832 172.948 425.972C172.584 426.103 172.183 426.168 171.744 426.168ZM177.586 426V415.402H178.636V426H177.586ZM180.785 426V415.402H181.835V426H180.785Z" fill="#6A7282"/>
<path d="M587.492 414V404.76H585.518V403.57H588.878V414H587.492ZM591.886 414V412.32H593.244V414H591.886ZM591.886 408.134V406.454H593.244V408.134H591.886ZM597.281 414V404.76H595.307V403.57H598.667V414H597.281ZM604.335 414.168C603.793 414.168 603.285 414.075 602.809 413.888C602.333 413.692 601.917 413.417 601.563 413.062C601.217 412.698 600.965 412.273 600.807 411.788L601.927 411.312C602.123 411.825 602.44 412.227 602.879 412.516C603.327 412.796 603.812 412.936 604.335 412.936C604.764 412.936 605.142 412.843 605.469 412.656C605.805 412.46 606.066 412.194 606.253 411.858C606.439 411.513 606.533 411.13 606.533 410.71C606.533 410.271 606.435 409.884 606.239 409.548C606.052 409.212 605.795 408.951 605.469 408.764C605.142 408.568 604.769 408.47 604.349 408.47C603.919 408.47 603.527 408.568 603.173 408.764C602.818 408.96 602.561 409.207 602.403 409.506L601.297 409.268L602.095 403.57H607.499V404.76H602.613L603.145 404.228L602.529 408.652L602.053 408.372C602.361 407.98 602.72 407.7 603.131 407.532C603.551 407.355 604.003 407.266 604.489 407.266C605.17 407.266 605.767 407.42 606.281 407.728C606.794 408.036 607.195 408.447 607.485 408.96C607.774 409.473 607.919 410.057 607.919 410.71C607.919 411.363 607.76 411.951 607.443 412.474C607.135 412.997 606.71 413.412 606.169 413.72C605.637 414.019 605.025 414.168 604.335 414.168Z" fill="#050711"/>
</g>
<g filter="url(#filter1_dd_3219_8551)">
<rect x="14" y="417" width="172" height="82" rx="14" fill="white"/>
<rect x="14.5" y="417.5" width="171" height="81" rx="13.5" stroke="#F3F4F6"/>
<rect x="31" y="434" width="48" height="48" rx="10" fill="#DCFCE7"/>
<path d="M59 453H65V459" stroke="#00A63E" stroke-width="2" stroke-linecap="round" stroke-linejoin="round"/>
<path d="M65 453L56.5 461.5L51.5 456.5L45 463" stroke="#00A63E" stroke-width="2" stroke-linecap="round" stroke-linejoin="round"/>
<path d="M96.992 450.168C96.2547 450.168 95.578 450.037 94.962 449.776C94.346 449.505 93.8093 449.132 93.352 448.656C92.904 448.171 92.554 447.601 92.302 446.948C92.05 446.295 91.924 445.576 91.924 444.792C91.924 444.008 92.05 443.289 92.302 442.636C92.554 441.983 92.904 441.413 93.352 440.928C93.8093 440.443 94.346 440.069 94.962 439.808C95.578 439.537 96.2547 439.402 96.992 439.402C97.7013 439.402 98.336 439.528 98.896 439.78C99.4653 440.032 99.9413 440.359 100.324 440.76C100.716 441.152 100.996 441.567 101.164 442.006L100.114 442.468C99.8527 441.861 99.4513 441.376 98.91 441.012C98.378 440.639 97.7387 440.452 96.992 440.452C96.2267 440.452 95.5453 440.634 94.948 440.998C94.3507 441.362 93.884 441.871 93.548 442.524C93.212 443.168 93.044 443.924 93.044 444.792C93.044 445.651 93.212 446.407 93.548 447.06C93.884 447.713 94.3507 448.222 94.948 448.586C95.5453 448.941 96.2267 449.118 96.992 449.118C97.7387 449.118 98.378 448.936 98.91 448.572C99.4513 448.208 99.8527 447.723 100.114 447.116L101.164 447.578C100.996 448.007 100.716 448.423 100.324 448.824C99.9413 449.216 99.4653 449.538 98.896 449.79C98.336 450.042 97.7013 450.168 96.992 450.168ZM106.684 450.168C106.021 450.168 105.419 450.042 104.878 449.79C104.336 449.538 103.879 449.202 103.506 448.782C103.132 448.353 102.866 447.881 102.708 447.368L103.716 446.99C103.958 447.699 104.336 448.241 104.85 448.614C105.363 448.978 105.974 449.16 106.684 449.16C107.132 449.16 107.524 449.09 107.86 448.95C108.205 448.801 108.471 448.595 108.658 448.334C108.844 448.073 108.938 447.769 108.938 447.424C108.938 446.911 108.798 446.514 108.518 446.234C108.238 445.954 107.836 445.739 107.314 445.59L105.438 445.03C104.7 444.815 104.131 444.456 103.73 443.952C103.338 443.448 103.142 442.874 103.142 442.23C103.142 441.679 103.277 441.194 103.548 440.774C103.818 440.345 104.187 440.009 104.654 439.766C105.13 439.523 105.666 439.402 106.264 439.402C106.889 439.402 107.449 439.519 107.944 439.752C108.448 439.976 108.872 440.275 109.218 440.648C109.563 441.021 109.81 441.437 109.96 441.894L108.98 442.286C108.756 441.67 108.406 441.203 107.93 440.886C107.463 440.569 106.912 440.41 106.278 440.41C105.876 440.41 105.522 440.48 105.214 440.62C104.915 440.76 104.682 440.961 104.514 441.222C104.346 441.483 104.262 441.791 104.262 442.146C104.262 442.575 104.397 442.963 104.668 443.308C104.938 443.644 105.354 443.896 105.914 444.064L107.566 444.554C108.387 444.797 109.008 445.147 109.428 445.604C109.848 446.061 110.058 446.635 110.058 447.326C110.058 447.886 109.913 448.381 109.624 448.81C109.344 449.23 108.947 449.561 108.434 449.804C107.93 450.047 107.346 450.168 106.684 450.168ZM111.142 450L114.95 439.57H116.154L119.962 450H118.786L117.89 447.452H113.228L112.318 450H111.142ZM113.592 446.402H117.498L115.384 440.41H115.72L113.592 446.402ZM122.462 450V440.62H119.578V439.57H126.438V440.62H123.582V450H122.462ZM133.713 450.168C133.05 450.168 132.448 450.042 131.907 449.79C131.365 449.538 130.908 449.202 130.535 448.782C130.161 448.353 129.895 447.881 129.737 447.368L130.745 446.99C130.987 447.699 131.365 448.241 131.879 448.614C132.392 448.978 133.003 449.16 133.713 449.16C134.161 449.16 134.553 449.09 134.889 448.95C135.234 448.801 135.5 448.595 135.687 448.334C135.873 448.073 135.967 447.769 135.967 447.424C135.967 446.911 135.827 446.514 135.547 446.234C135.267 445.954 134.865 445.739 134.343 445.59L132.467 445.03C131.729 444.815 131.16 444.456 130.759 443.952C130.367 443.448 130.171 442.874 130.171 442.23C130.171 441.679 130.306 441.194 130.577 440.774C130.847 440.345 131.216 440.009 131.683 439.766C132.159 439.523 132.695 439.402 133.293 439.402C133.918 439.402 134.478 439.519 134.973 439.752C135.477 439.976 135.901 440.275 136.247 440.648C136.592 441.021 136.839 441.437 136.989 441.894L136.009 442.286C135.785 441.67 135.435 441.203 134.959 440.886C134.492 440.569 133.941 440.41 133.307 440.41C132.905 440.41 132.551 440.48 132.243 440.62C131.944 440.76 131.711 440.961 131.543 441.222C131.375 441.483 131.291 441.791 131.291 442.146C131.291 442.575 131.426 442.963 131.697 443.308C131.967 443.644 132.383 443.896 132.943 444.064L134.595 444.554C135.416 444.797 136.037 445.147 136.457 445.604C136.877 446.061 137.087 446.635 137.087 447.326C137.087 447.886 136.942 448.381 136.653 448.81C136.373 449.23 135.976 449.561 135.463 449.804C134.959 450.047 134.375 450.168 133.713 450.168ZM142.526 450.168C141.788 450.168 141.14 449.995 140.58 449.65C140.02 449.305 139.581 448.838 139.264 448.25C138.946 447.653 138.788 446.981 138.788 446.234C138.788 445.487 138.946 444.82 139.264 444.232C139.581 443.644 140.02 443.182 140.58 442.846C141.14 442.501 141.788 442.328 142.526 442.328C142.992 442.328 143.431 442.412 143.842 442.58C144.252 442.748 144.616 442.977 144.934 443.266C145.251 443.546 145.489 443.873 145.648 444.246L144.696 444.736C144.509 444.335 144.224 444.008 143.842 443.756C143.459 443.504 143.02 443.378 142.526 443.378C142.031 443.378 141.583 443.504 141.182 443.756C140.79 443.999 140.477 444.339 140.244 444.778C140.02 445.207 139.908 445.697 139.908 446.248C139.908 446.789 140.02 447.279 140.244 447.718C140.477 448.147 140.79 448.488 141.182 448.74C141.583 448.992 142.031 449.118 142.526 449.118C143.02 449.118 143.454 448.992 143.828 448.74C144.21 448.488 144.5 448.152 144.696 447.732L145.648 448.25C145.489 448.614 145.251 448.941 144.934 449.23C144.616 449.519 144.252 449.748 143.842 449.916C143.431 450.084 142.992 450.168 142.526 450.168ZM151.004 450.168C150.295 450.168 149.651 450 149.072 449.664C148.493 449.319 148.031 448.852 147.686 448.264C147.35 447.667 147.182 446.99 147.182 446.234C147.182 445.487 147.35 444.82 147.686 444.232C148.022 443.644 148.475 443.182 149.044 442.846C149.623 442.501 150.276 442.328 151.004 442.328C151.732 442.328 152.381 442.496 152.95 442.832C153.529 443.168 153.981 443.63 154.308 444.218C154.644 444.806 154.812 445.478 154.812 446.234C154.812 446.999 154.639 447.681 154.294 448.278C153.949 448.866 153.487 449.328 152.908 449.664C152.339 450 151.704 450.168 151.004 450.168ZM151.004 449.118C151.508 449.118 151.961 448.992 152.362 448.74C152.773 448.488 153.095 448.143 153.328 447.704C153.571 447.265 153.692 446.775 153.692 446.234C153.692 445.693 153.571 445.207 153.328 444.778C153.095 444.349 152.773 444.008 152.362 443.756C151.961 443.504 151.508 443.378 151.004 443.378C150.5 443.378 150.043 443.504 149.632 443.756C149.231 444.008 148.909 444.349 148.666 444.778C148.423 445.207 148.302 445.693 148.302 446.234C148.302 446.775 148.423 447.265 148.666 447.704C148.909 448.143 149.231 448.488 149.632 448.74C150.043 448.992 150.5 449.118 151.004 449.118ZM156.664 450V442.496H157.714V443.728L157.574 443.546C157.751 443.191 158.017 442.911 158.372 442.706C158.736 442.501 159.175 442.398 159.688 442.398H160.164V443.448H159.506C158.965 443.448 158.531 443.616 158.204 443.952C157.877 444.288 157.714 444.764 157.714 445.38V450H156.664ZM164.81 450.168C164.11 450.168 163.476 450 162.906 449.664C162.346 449.319 161.903 448.847 161.576 448.25C161.25 447.653 161.086 446.976 161.086 446.22C161.086 445.464 161.245 444.797 161.562 444.218C161.88 443.63 162.309 443.168 162.85 442.832C163.401 442.496 164.017 442.328 164.698 442.328C165.24 442.328 165.72 442.431 166.14 442.636C166.57 442.832 166.934 443.103 167.232 443.448C167.531 443.784 167.76 444.167 167.918 444.596C168.077 445.016 168.156 445.45 168.156 445.898C168.156 445.991 168.152 446.099 168.142 446.22C168.133 446.332 168.119 446.449 168.1 446.57H161.758V445.59H167.498L166.994 446.01C167.078 445.497 167.018 445.039 166.812 444.638C166.616 444.227 166.332 443.905 165.958 443.672C165.585 443.429 165.165 443.308 164.698 443.308C164.232 443.308 163.798 443.429 163.396 443.672C163.004 443.915 162.696 444.255 162.472 444.694C162.248 445.123 162.16 445.637 162.206 446.234C162.16 446.831 162.253 447.354 162.486 447.802C162.729 448.241 163.056 448.581 163.466 448.824C163.886 449.067 164.334 449.188 164.81 449.188C165.361 449.188 165.823 449.057 166.196 448.796C166.57 448.535 166.873 448.208 167.106 447.816L168.002 448.292C167.853 448.628 167.624 448.941 167.316 449.23C167.008 449.51 166.64 449.739 166.21 449.916C165.79 450.084 165.324 450.168 164.81 450.168Z" fill="#4A5565"/>
<path d="M92.88 476L97.94 469.48L98.4 469.96C98.2 470.107 98.0067 470.227 97.82 470.32C97.6333 470.413 97.4333 470.48 97.22 470.52C97.0067 470.56 96.78 470.58 96.54 470.58C95.6333 470.58 94.8267 470.373 94.12 469.96C93.4133 469.547 92.8533 468.987 92.44 468.28C92.04 467.56 91.84 466.747 91.84 465.84C91.84 464.88 92.06 464.027 92.5 463.28C92.9533 462.533 93.5667 461.947 94.34 461.52C95.1267 461.08 96.02 460.86 97.02 460.86C98.0333 460.86 98.9267 461.073 99.7 461.5C100.473 461.927 101.08 462.513 101.52 463.26C101.973 463.993 102.2 464.84 102.2 465.8C102.2 466.28 102.147 466.76 102.04 467.24C101.933 467.72 101.74 468.233 101.46 468.78C101.193 469.313 100.807 469.92 100.3 470.6L96.14 476H92.88ZM97.02 468.3C97.4867 468.3 97.9 468.2 98.26 468C98.6333 467.787 98.9267 467.493 99.14 467.12C99.3533 466.733 99.46 466.3 99.46 465.82C99.46 465.313 99.3467 464.873 99.12 464.5C98.9067 464.127 98.62 463.833 98.26 463.62C97.9 463.407 97.4867 463.3 97.02 463.3C96.5667 463.3 96.1533 463.407 95.78 463.62C95.4067 463.833 95.1067 464.127 94.88 464.5C94.6667 464.873 94.56 465.313 94.56 465.82C94.56 466.3 94.6667 466.733 94.88 467.12C95.1067 467.493 95.4067 467.787 95.78 468C96.1533 468.2 96.5667 468.3 97.02 468.3ZM110.279 476V472.72H103.439V470.44L110.119 461.1H112.959V470.44H115.139V472.72H112.959V476H110.279ZM105.439 471.42L104.959 470.44H110.279V463.24L110.979 463.46L105.439 471.42ZM118.865 476L130.945 461.1H133.745L121.665 476H118.865ZM121.205 468.66C120.458 468.66 119.785 468.487 119.185 468.14C118.598 467.78 118.131 467.307 117.785 466.72C117.438 466.133 117.265 465.48 117.265 464.76C117.265 464.04 117.438 463.387 117.785 462.8C118.131 462.2 118.598 461.727 119.185 461.38C119.785 461.033 120.451 460.86 121.185 460.86C121.931 460.86 122.598 461.033 123.185 461.38C123.771 461.727 124.238 462.2 124.585 462.8C124.931 463.387 125.105 464.04 125.105 464.76C125.105 465.48 124.931 466.133 124.585 466.72C124.238 467.307 123.771 467.78 123.185 468.14C122.598 468.487 121.938 468.66 121.205 468.66ZM121.185 466.64C121.585 466.64 121.918 466.553 122.185 466.38C122.451 466.193 122.651 465.96 122.785 465.68C122.931 465.387 123.005 465.08 123.005 464.76C123.005 464.427 122.931 464.12 122.785 463.84C122.651 463.56 122.451 463.327 122.185 463.14C121.918 462.953 121.585 462.86 121.185 462.86C120.811 462.86 120.485 462.953 120.205 463.14C119.938 463.327 119.731 463.567 119.585 463.86C119.438 464.14 119.365 464.44 119.365 464.76C119.365 465.067 119.438 465.367 119.585 465.66C119.731 465.953 119.938 466.193 120.205 466.38C120.485 466.553 120.811 466.64 121.185 466.64ZM131.345 476.24C130.611 476.24 129.945 476.067 129.345 475.72C128.758 475.36 128.291 474.887 127.945 474.3C127.598 473.713 127.425 473.06 127.425 472.34C127.425 471.62 127.598 470.967 127.945 470.38C128.291 469.78 128.758 469.307 129.345 468.96C129.945 468.613 130.611 468.44 131.345 468.44C132.091 468.44 132.758 468.613 133.345 468.96C133.931 469.307 134.398 469.78 134.745 470.38C135.091 470.967 135.265 471.62 135.265 472.34C135.265 473.06 135.091 473.713 134.745 474.3C134.398 474.887 133.931 475.36 133.345 475.72C132.758 476.067 132.091 476.24 131.345 476.24ZM131.345 474.22C131.731 474.22 132.058 474.133 132.325 473.96C132.605 473.773 132.811 473.54 132.945 473.26C133.091 472.967 133.165 472.66 133.165 472.34C133.165 472.007 133.091 471.7 132.945 471.42C132.811 471.14 132.605 470.907 132.325 470.72C132.058 470.533 131.731 470.44 131.345 470.44C130.971 470.44 130.645 470.533 130.365 470.72C130.098 470.907 129.891 471.147 129.745 471.44C129.598 471.72 129.525 472.02 129.525 472.34C129.525 472.647 129.598 472.947 129.745 473.24C129.891 473.533 130.098 473.773 130.365 473.96C130.645 474.133 130.971 474.22 131.345 474.22Z" fill="#050711"/>
</g>
<defs>
<filter id="filter0_d_3219_8551" x="0" y="0" width="692" height="538" filterUnits="userSpaceOnUse" color-interpolation-filters="sRGB">
<feFlood flood-opacity="0" result="BackgroundImageFix"/>
<feColorMatrix in="SourceAlpha" type="matrix" values="0 0 0 0 0 0 0 0 0 0 0 0 0 0 0 0 0 0 127 0" result="hardAlpha"/>
<feMorphology radius="12" operator="erode" in="SourceAlpha" result="effect1_dropShadow_3219_8551"/>
<feOffset dy="25"/>
<feGaussianBlur stdDeviation="25"/>
<feComposite in2="hardAlpha" operator="out"/>
<feColorMatrix type="matrix" values="0 0 0 0 0 0 0 0 0 0 0 0 0 0 0 0 0 0 0.25 0"/>
<feBlend mode="normal" in2="BackgroundImageFix" result="effect1_dropShadow_3219_8551"/>
<feBlend mode="normal" in="SourceGraphic" in2="effect1_dropShadow_3219_8551" result="shape"/>
</filter>
<filter id="filter1_dd_3219_8551" x="2" y="415" width="196" height="106" filterUnits="userSpaceOnUse" color-interpolation-filters="sRGB">
<feFlood flood-opacity="0" result="BackgroundImageFix"/>
<feColorMatrix in="SourceAlpha" type="matrix" values="0 0 0 0 0 0 0 0 0 0 0 0 0 0 0 0 0 0 127 0" result="hardAlpha"/>
<feMorphology radius="4" operator="erode" in="SourceAlpha" result="effect1_dropShadow_3219_8551"/>
<feOffset dy="4"/>
<feGaussianBlur stdDeviation="3"/>
<feComposite in2="hardAlpha" operator="out"/>
<feColorMatrix type="matrix" values="0 0 0 0 0 0 0 0 0 0 0 0 0 0 0 0 0 0 0.1 0"/>
<feBlend mode="normal" in2="BackgroundImageFix" result="effect1_dropShadow_3219_8551"/>
<feColorMatrix in="SourceAlpha" type="matrix" values="0 0 0 0 0 0 0 0 0 0 0 0 0 0 0 0 0 0 127 0" result="hardAlpha"/>
<feMorphology radius="3" operator="erode" in="SourceAlpha" result="effect2_dropShadow_3219_8551"/>
<feOffset dy="10"/>
<feGaussianBlur stdDeviation="7.5"/>
<feComposite in2="hardAlpha" operator="out"/>
<feColorMatrix type="matrix" values="0 0 0 0 0 0 0 0 0 0 0 0 0 0 0 0 0 0 0.1 0"/>
<feBlend mode="normal" in2="effect1_dropShadow_3219_8551" result="effect2_dropShadow_3219_8551"/>
<feBlend mode="normal" in="SourceGraphic" in2="effect2_dropShadow_3219_8551" result="shape"/>
</filter>
<linearGradient id="paint0_linear_3219_8551" x1="176.164" y1="61.7637" x2="232.836" y2="226.236" gradientUnits="userSpaceOnUse">
<stop stop-color="#6C8B7D" stop-opacity="0.1"/>
<stop offset="1" stop-color="#6C8B7D" stop-opacity="0.05"/>
</linearGradient>
<linearGradient id="paint1_linear_3219_8551" x1="459.164" y1="61.7637" x2="515.836" y2="226.236" gradientUnits="userSpaceOnUse">
<stop stop-color="#050711" stop-opacity="0.1"/>
<stop offset="1" stop-color="#050711" stop-opacity="0.05"/>
</linearGradient>
</defs>
</svg>
