<svg width="56" height="56" viewBox="0 0 56 56" fill="none" xmlns="http://www.w3.org/2000/svg">
<rect width="56" height="56" rx="14" fill="#6C8B7D" fill-opacity="0.1"/>
<path d="M34.4172 36.1666H24.5005C22.986 36.1662 21.5015 35.7447 20.2128 34.9491C18.924 34.1536 17.8819 33.0154 17.2029 31.6616C16.5238 30.3079 16.2346 28.792 16.3674 27.2834C16.5003 25.7747 17.0501 24.3327 17.9553 23.1186C18.8606 21.9044 20.0856 20.9658 21.4935 20.4078C22.9015 19.8498 24.4369 19.6943 25.9281 19.9586C27.4193 20.223 28.8077 20.8968 29.938 21.9048C31.0684 22.9128 31.8961 24.2152 32.3288 25.6666H34.4172C35.8096 25.6666 37.1449 26.2197 38.1295 27.2043C39.1141 28.1888 39.6672 29.5242 39.6672 30.9166C39.6672 32.309 39.1141 33.6443 38.1295 34.6289C37.1449 35.6135 35.8096 36.1666 34.4172 36.1666Z" stroke="#6C8B7D" stroke-width="2.33333" stroke-linecap="round" stroke-linejoin="round"/>
</svg>
