<svg width="56" height="56" viewBox="0 0 56 56" fill="none" xmlns="http://www.w3.org/2000/svg">
<rect width="56" height="56" rx="14" fill="#6C8B7D" fill-opacity="0.1"/>
<path d="M28.0007 39.6666C34.444 39.6666 39.6673 34.4432 39.6673 27.9999C39.6673 21.5566 34.444 16.3333 28.0007 16.3333C21.5573 16.3333 16.334 21.5566 16.334 27.9999C16.334 34.4432 21.5573 39.6666 28.0007 39.6666Z" stroke="#6C8B7D" stroke-width="2.33333" stroke-linecap="round" stroke-linejoin="round"/>
<path d="M28 35C31.866 35 35 31.866 35 28C35 24.134 31.866 21 28 21C24.134 21 21 24.134 21 28C21 31.866 24.134 35 28 35Z" stroke="#6C8B7D" stroke-width="2.33333" stroke-linecap="round" stroke-linejoin="round"/>
<path d="M27.9993 30.3334C29.288 30.3334 30.3327 29.2887 30.3327 28.0001C30.3327 26.7114 29.288 25.6667 27.9993 25.6667C26.7107 25.6667 25.666 26.7114 25.666 28.0001C25.666 29.2887 26.7107 30.3334 27.9993 30.3334Z" stroke="#6C8B7D" stroke-width="2.33333" stroke-linecap="round" stroke-linejoin="round"/>
</svg>
