<svg width="56" height="56" viewBox="0 0 56 56" fill="none" xmlns="http://www.w3.org/2000/svg">
<rect width="56" height="56" rx="14" fill="#6C8B7D" fill-opacity="0.1"/>
<path d="M30.138 33.3295C30.3789 33.4402 30.6504 33.4654 30.9076 33.4012C31.1649 33.3369 31.3925 33.187 31.5532 32.976L31.9673 32.4335C32.1847 32.1437 32.4665 31.9085 32.7905 31.7465C33.1145 31.5845 33.4717 31.5002 33.834 31.5002H37.334C37.9528 31.5002 38.5463 31.746 38.9839 32.1836C39.4215 32.6212 39.6673 33.2147 39.6673 33.8335V37.3335C39.6673 37.9523 39.4215 38.5458 38.9839 38.9834C38.5463 39.421 37.9528 39.6668 37.334 39.6668C31.7644 39.6668 26.423 37.4543 22.4847 33.5161C18.5465 29.5778 16.334 24.2364 16.334 18.6668C16.334 18.048 16.5798 17.4545 17.0174 17.0169C17.455 16.5793 18.0485 16.3335 18.6673 16.3335H22.1673C22.7862 16.3335 23.3796 16.5793 23.8172 17.0169C24.2548 17.4545 24.5007 18.048 24.5007 18.6668V22.1668C24.5007 22.5291 24.4163 22.8863 24.2543 23.2103C24.0923 23.5343 23.8571 23.8162 23.5673 24.0335L23.0213 24.443C22.8071 24.6065 22.6562 24.8392 22.5941 25.1014C22.532 25.3636 22.5626 25.6393 22.6807 25.8815C24.2751 29.12 26.8975 31.7391 30.138 33.3295Z" stroke="#6C8B7D" stroke-width="2.33333" stroke-linecap="round" stroke-linejoin="round"/>
</svg>
