<svg width="20" height="20" viewBox="0 0 20 20" fill="none" xmlns="http://www.w3.org/2000/svg">
<path d="M5.3732 7.47443C5.63516 5.11685 7.62791 3.33325 10 3.33325C12.3721 3.33325 14.3648 5.11685 14.6268 7.47443L14.8366 9.36295C14.9443 10.3317 15.2596 11.2659 15.7611 12.1018L16.2428 12.9046C16.5455 13.4091 16.6969 13.6614 16.7246 13.8647C16.7854 14.3105 16.5412 14.7419 16.1277 14.9191C15.939 14.9999 15.6448 14.9999 15.0565 14.9999H4.94353C4.35515 14.9999 4.06097 14.9999 3.87233 14.9191C3.45885 14.7419 3.21456 14.3105 3.27537 13.8647C3.30311 13.6614 3.45447 13.4091 3.75718 12.9046L4.23888 12.1018C4.74039 11.2659 5.05572 10.3317 5.16337 9.36295L5.3732 7.47443Z" stroke="#222222"/>
<path d="M7.58519 15.3382C7.72762 15.9584 8.04149 16.5064 8.4781 16.8973C8.91471 17.2881 9.44966 17.5 10 17.5C10.5503 17.5 11.0853 17.2881 11.5219 16.8973C11.9585 16.5064 12.2724 15.9584 12.4148 15.3382" stroke="#222222" stroke-linecap="round"/>
</svg>
