<svg width="20" height="20" viewBox="0 0 20 20" fill="none" xmlns="http://www.w3.org/2000/svg">
<path d="M12.2095 4.84082C12.4013 4.80543 12.5987 4.80543 12.7905 4.84082C13.0825 4.89478 13.3148 5.04012 13.5181 5.20508C13.7132 5.36348 13.9293 5.58111 14.1743 5.82617C14.4193 6.0712 14.6361 6.2873 14.7944 6.48242C14.9595 6.68581 15.1048 6.91781 15.1587 7.20996C15.1941 7.40175 15.1941 7.59825 15.1587 7.79004C15.1048 8.08219 14.9595 8.31419 14.7944 8.51758C14.6361 8.7127 14.4193 8.9288 14.1743 9.17383L8.31592 15.0322C8.14379 15.2044 7.9824 15.3729 7.77686 15.4893C7.57131 15.6056 7.34407 15.6578 7.10791 15.7168L5.15381 16.2041L5.14697 16.207L5.12061 16.2129C4.95968 16.2531 4.77244 16.302 4.61475 16.3174C4.44962 16.3335 4.14997 16.3321 3.90869 16.0908C3.66757 15.8496 3.66598 15.5499 3.68213 15.3848C3.69759 15.2271 3.74641 15.0397 3.78662 14.8789L4.28369 12.8916C4.34269 12.6556 4.39394 12.4281 4.51025 12.2227C4.62663 12.0172 4.79519 11.8557 4.96729 11.6836L10.8257 5.82617C11.0708 5.58102 11.2867 5.36349 11.4819 5.20508C11.6853 5.04006 11.9174 4.89473 12.2095 4.84082Z" stroke="#33363F" stroke-width="1.2"/>
<path d="M10.4165 6.25L13.7498 9.58333" stroke="#7E869E" stroke-opacity="0.25"/>
</svg>
