<svg width="20" height="20" viewBox="0 0 20 20" fill="none" xmlns="http://www.w3.org/2000/svg">
<path d="M10 4.6665C11.1046 4.6665 12 5.56193 12 6.6665C12 7.77107 11.1046 8.6665 10 8.6665C8.89543 8.6665 8 7.77107 8 6.6665C8 5.56193 8.89543 4.6665 10 4.6665Z" stroke="#222222" stroke-linecap="round"/>
<path d="M11.5456 5.45817C11.7022 5.18697 11.9357 4.96829 12.2165 4.82979C12.4974 4.69128 12.813 4.63917 13.1235 4.68005C13.434 4.72092 13.7254 4.85295 13.9608 5.05942C14.1962 5.2659 14.3652 5.53756 14.4462 5.84004C14.5273 6.14252 14.5168 6.46225 14.4161 6.75878C14.3155 7.05532 14.1291 7.31534 13.8807 7.50598C13.6323 7.69662 13.3329 7.8093 13.0204 7.82978C12.7079 7.85026 12.3964 7.77762 12.1252 7.62104" stroke="#222222"/>
<path d="M8.45438 5.45817C8.2978 5.18697 8.06432 4.96829 7.78346 4.82979C7.5026 4.69128 7.18698 4.63917 6.8765 4.68005C6.56603 4.72092 6.27465 4.85295 6.03921 5.05942C5.80376 5.2659 5.63484 5.53756 5.55379 5.84004C5.47274 6.14252 5.4832 6.46225 5.58386 6.75878C5.68452 7.05532 5.87086 7.31534 6.1193 7.50598C6.36774 7.69662 6.66713 7.8093 6.97962 7.82978C7.2921 7.85026 7.60364 7.77762 7.87484 7.62104" stroke="#222222"/>
<path d="M9.99984 10.4165C13.2728 10.4165 14.2085 12.9662 14.4761 14.4241C14.5757 14.9674 14.1355 15.4165 13.5832 15.4165H6.41651C5.86422 15.4165 5.42393 14.9674 5.52361 14.4241C5.79113 12.9662 6.72686 10.4165 9.99984 10.4165Z" stroke="#222222" stroke-linecap="round"/>
<path d="M16.0334 12.6687L15.5514 12.8013L15.5514 12.8013L16.0334 12.6687ZM10.9058 10.4884L10.5365 10.1513L9.91609 10.8308L10.8238 10.9817L10.9058 10.4884ZM14.3176 13.7502L13.8373 13.8891L13.9418 14.2502H14.3176V13.7502ZM12.9165 9.5835V10.0835C13.7032 10.0835 14.2642 10.4484 14.6861 10.9756C15.1192 11.5167 15.3897 12.2139 15.5514 12.8013L16.0334 12.6687L16.5155 12.536C16.3375 11.8889 16.0214 11.0436 15.4669 10.3507C14.9012 9.64392 14.0736 9.0835 12.9165 9.0835V9.5835ZM10.9058 10.4884L11.275 10.8256C11.679 10.383 12.2027 10.0835 12.9165 10.0835V9.5835V9.0835C11.8748 9.0835 11.0959 9.53865 10.5365 10.1513L10.9058 10.4884ZM10.9058 10.4884L10.8238 10.9817C12.6951 11.2926 13.4897 12.6876 13.8373 13.8891L14.3176 13.7502L14.7979 13.6112C14.4012 12.24 13.4084 10.3975 10.9877 9.99519L10.9058 10.4884ZM15.1448 13.7502V13.2502H14.3176V13.7502V14.2502H15.1448V13.7502ZM16.0334 12.6687L15.5514 12.8013C15.5838 12.9191 15.5551 13.0209 15.4876 13.1011C15.4163 13.1856 15.2957 13.2502 15.1448 13.2502V13.7502V14.2502C16.0114 14.2502 16.7742 13.4761 16.5155 12.536L16.0334 12.6687Z" fill="#222222"/>
<path d="M9.09409 10.4884L9.17606 10.9817L10.0838 10.8308L9.46334 10.1513L9.09409 10.4884ZM3.96639 12.6687L4.44847 12.8013L3.96639 12.6687ZM5.68225 13.7502V14.2502H6.0581L6.16255 13.8891L5.68225 13.7502ZM7.08334 9.5835V10.0835C7.79712 10.0835 8.32082 10.383 8.72484 10.8256L9.09409 10.4884L9.46334 10.1513C8.90397 9.53865 8.12503 9.0835 7.08334 9.0835V9.5835ZM3.96639 12.6687L4.44847 12.8013C4.61013 12.2139 4.88064 11.5167 5.3137 10.9756C5.73563 10.4484 6.29666 10.0835 7.08334 10.0835V9.5835V9.0835C5.92622 9.0835 5.09864 9.64392 4.53297 10.3507C3.97844 11.0435 3.66238 11.8889 3.48431 12.536L3.96639 12.6687ZM4.85499 13.7502V13.2502C4.70412 13.2502 4.5835 13.1856 4.51226 13.1011C4.4447 13.0209 4.41607 12.9191 4.44847 12.8013L3.96639 12.6687L3.48431 12.536C3.22564 13.476 3.98843 14.2502 4.85499 14.2502V13.7502ZM5.68225 13.7502V13.2502H4.85499V13.7502V14.2502H5.68225V13.7502ZM5.68225 13.7502L6.16255 13.8891C6.51018 12.6876 7.30475 11.2926 9.17606 10.9817L9.09409 10.4884L9.01212 9.99519C6.59141 10.3975 5.59864 12.24 5.20194 13.6112L5.68225 13.7502Z" fill="#222222"/>
</svg>
