<svg width="20" height="20" viewBox="0 0 20 20" fill="none" xmlns="http://www.w3.org/2000/svg">
<path d="M11.7795 2.80128L11.282 2.85103V2.85103L11.7795 2.80128ZM11.719 2.38L11.24 2.52337V2.52337L11.719 2.38ZM11.894 3.55471L11.4297 3.74014L11.4297 3.74014L11.894 3.55471ZM13.2172 4.10277L13.0199 3.64331V3.64331L13.2172 4.10277ZM13.8309 3.65102L13.5536 3.235L13.5332 3.24856L13.5143 3.26404L13.8309 3.65102ZM13.8309 3.65102L14.1083 4.06704L14.1286 4.05348L14.1475 4.03799L13.8309 3.65102ZM14.1715 3.39587L13.9342 2.95579V2.95579L14.1715 3.39587ZM15.2061 3.44747L15.486 3.03318L15.486 3.03318L15.2061 3.44747ZM15.5196 3.73525L15.166 4.0888V4.0888L15.5196 3.73525ZM16.2641 4.4798L16.6177 4.12625L16.2641 4.4798ZM16.5519 4.79336L16.1376 5.07329L16.1376 5.07329L16.5519 4.79336ZM16.6035 5.82787L16.1634 5.59055L16.1634 5.59055L16.6035 5.82787ZM16.3484 6.1685L16.7354 6.48512V6.48512L16.3484 6.1685ZM15.8966 6.78228L15.4371 6.58506L15.4371 6.58506L15.8966 6.78228ZM16.4447 8.1054L16.6301 7.64105V7.64105L16.4447 8.1054ZM17.1981 8.21996L17.1484 8.71748L17.1981 8.21996ZM17.6194 8.2804L17.4761 8.7594L17.6194 8.2804ZM18.3145 9.04838L18.8054 8.95338V8.95337L18.3145 9.04838ZM18.3145 10.9517L17.8236 10.8567V10.8567L18.3145 10.9517ZM17.6194 11.7198L17.7627 12.1988V12.1988L17.6194 11.7198ZM17.1982 11.7802L17.1485 11.2827L17.1241 11.2851L17.1002 11.2899L17.1982 11.7802ZM17.1982 11.7802L17.248 12.2777L17.2723 12.2753L17.2963 12.2705L17.1982 11.7802ZM16.4451 11.8947L16.2598 11.4303L16.2598 11.4303L16.4451 11.8947ZM15.897 13.218L15.4376 13.4153L15.4376 13.4153L15.897 13.218ZM16.3485 13.8314L15.9615 14.148L15.9615 14.148L16.3485 13.8314ZM16.6035 14.1718L16.1635 14.4092V14.4092L16.6035 14.1718ZM16.5519 15.2065L16.1376 14.9266L16.1376 14.9266L16.5519 15.2065ZM15.2061 16.5523L15.486 16.9666L15.486 16.9666L15.2061 16.5523ZM14.1716 16.6039L13.9342 17.044V17.044L14.1716 16.6039ZM13.831 16.3488L14.1476 15.9618L14.1287 15.9463L14.1083 15.9327L13.831 16.3488ZM13.8309 16.3488L13.5109 16.7329L13.5314 16.75L13.5536 16.7648L13.8309 16.3488ZM13.8309 16.3488L14.151 15.9646L14.1475 15.9618L13.8309 16.3488ZM13.2172 15.897L13.02 16.3565L13.02 16.3565L13.2172 15.897ZM11.8941 16.4451L11.4297 16.2597L11.4297 16.2597L11.8941 16.4451ZM11.7795 17.1987L12.277 17.2484V17.2484L11.7795 17.1987ZM11.719 17.6203L12.198 17.7637L12.198 17.7637L11.719 17.6203ZM10.9511 18.3152L10.8561 17.8243H10.8561L10.9511 18.3152ZM9.04765 18.3152L8.95265 18.8061H8.95265L9.04765 18.3152ZM8.27967 17.6202L7.80067 17.7636L8.27967 17.6202ZM8.21923 17.1989L7.72171 17.2486L8.21923 17.1989ZM8.10466 16.4454L8.569 16.2599L8.569 16.2599L8.10466 16.4454ZM6.78156 15.8973L6.58435 15.4379L6.58435 15.4379L6.78156 15.8973ZM6.16775 16.3491L5.85113 15.9622H5.85113L6.16775 16.3491ZM5.82709 16.6043L5.58977 16.1642H5.58977L5.82709 16.6043ZM4.7926 16.5527L5.07253 16.1384H5.07252L4.7926 16.5527ZM4.47903 16.2649L4.83258 15.9114L4.82219 15.901L4.81121 15.8912L4.47903 16.2649ZM4.47902 16.2649L4.12547 16.6185L4.13586 16.6288L4.14684 16.6386L4.47902 16.2649ZM3.73449 15.5204L3.38094 15.8739H3.38094L3.73449 15.5204ZM3.73448 15.5204L3.38093 15.8739L3.38093 15.8739L3.73448 15.5204ZM3.44669 15.2068L3.0324 15.4867L3.0324 15.4867L3.44669 15.2068ZM3.3951 14.1723L2.95501 13.935L2.95501 13.935L3.3951 14.1723ZM3.65027 13.8317L3.26329 13.515H3.26329L3.65027 13.8317ZM4.10204 13.2179L4.5615 13.4151L4.5615 13.4151L4.10204 13.2179ZM3.55398 11.8948L3.73941 11.4304L3.55398 11.8948ZM2.80054 11.7802L2.75079 12.2777H2.75079L2.80054 11.7802ZM2.37926 11.7198L2.23589 12.1988L2.23589 12.1988L2.37926 11.7198ZM1.68423 10.9518L2.17512 10.8568L1.68423 10.9518ZM1.66602 10.5266H1.16602H1.66602ZM1.66602 9.4737H2.16602H1.66602ZM1.68425 9.04832L2.17513 9.14336L2.17513 9.14336L1.68425 9.04832ZM2.37918 8.28042L2.23577 7.80143H2.23577L2.37918 8.28042ZM2.80064 8.21995L2.75089 7.72243H2.75089L2.80064 8.21995ZM3.55441 8.10533L3.73989 8.56965L3.7399 8.56965L3.55441 8.10533ZM4.1024 6.78236L4.56188 6.5852L4.56188 6.5852L4.1024 6.78236ZM3.65041 6.16826L3.26343 6.48488L3.65041 6.16826ZM3.39508 5.82738L2.95496 6.06465L3.39508 5.82738ZM3.44667 4.79308L3.86099 5.07296L3.86099 5.07296L3.44667 4.79308ZM3.73462 4.47933L4.08818 4.83288L4.09747 4.82358L4.10627 4.81381L3.73462 4.47933ZM3.73463 4.47932L3.38107 4.12577L3.37178 4.13507L3.36298 4.14484L3.73463 4.47932ZM4.47906 3.73489L4.83261 4.08844V4.08844L4.47906 3.73489ZM4.79263 3.44708L5.07256 3.86138L5.07256 3.86138L4.79263 3.44708ZM5.82712 3.39549L6.06444 2.95539H6.06444L5.82712 3.39549ZM6.16785 3.65072L5.85123 4.03769V4.0377L6.16785 3.65072ZM6.78146 4.1024L6.97874 3.64296L6.97874 3.64296L6.78146 4.1024ZM8.10475 3.55427L7.64038 3.3689L7.64038 3.3689L8.10475 3.55427ZM8.21924 2.80117L7.72172 2.75142V2.75142L8.21924 2.80117ZM8.27964 2.38008L8.75866 2.52341V2.52341L8.27964 2.38008ZM9.04775 1.68495L9.14271 2.17585V2.17585L9.04775 1.68495ZM10.951 1.68496L10.856 2.17586V2.17586L10.951 1.68496ZM12.277 2.75153C12.2573 2.55436 12.2427 2.38582 12.198 2.23662L11.24 2.52337C11.2504 2.55787 11.2577 2.60895 11.282 2.85103L12.277 2.75153ZM12.3584 3.36928C12.3552 3.36147 12.3434 3.32555 12.3278 3.21476C12.3126 3.10698 12.2982 2.96323 12.277 2.75153L11.282 2.85103C11.3023 3.05429 11.3189 3.22175 11.3376 3.3542C11.3558 3.48364 11.3805 3.61696 11.4297 3.74014L12.3584 3.36928ZM13.0199 3.64331C12.7616 3.7542 12.4626 3.63037 12.3584 3.36928L11.4297 3.74014C11.7425 4.52342 12.6393 4.89491 13.4144 4.56223L13.0199 3.64331ZM13.5143 3.26404C13.3496 3.39877 13.2378 3.49018 13.1508 3.55566C13.0614 3.62297 13.0277 3.63999 13.0199 3.64331L13.4144 4.56223C13.5363 4.50991 13.648 4.4331 13.7524 4.35446C13.8593 4.27399 13.9894 4.16735 14.1475 4.038L13.5143 3.26404ZM13.5536 3.23499L13.5536 3.235L14.1083 4.06705L14.1083 4.06704L13.5536 3.23499ZM13.9342 2.95579C13.7971 3.02971 13.6676 3.13857 13.5143 3.26404L14.1475 4.03799C14.3358 3.88394 14.3772 3.85305 14.4089 3.83596L13.9342 2.95579ZM15.486 3.03318C15.0234 2.72063 14.4256 2.69081 13.9342 2.95579L14.4089 3.83596C14.5726 3.74763 14.7719 3.75757 14.9261 3.86176L15.486 3.03318ZM15.8731 3.38169C15.733 3.24159 15.615 3.12037 15.486 3.03318L14.9261 3.86176C14.956 3.88192 14.994 3.91677 15.166 4.0888L15.8731 3.38169ZM16.6177 4.12625L15.8731 3.38169L15.166 4.0888L15.9106 4.83336L16.6177 4.12625ZM16.9662 4.51342C16.879 4.38438 16.7578 4.26636 16.6177 4.12625L15.9106 4.83336C16.0826 5.00539 16.1175 5.04345 16.1376 5.07329L16.9662 4.51342ZM17.0436 6.06519C17.3086 5.57383 17.2788 4.97598 16.9662 4.51342L16.1376 5.07329C16.2418 5.22748 16.2518 5.42676 16.1634 5.59055L17.0436 6.06519ZM16.7354 6.48512C16.8608 6.33176 16.9697 6.20227 17.0436 6.06519L16.1634 5.59055C16.1463 5.62225 16.1155 5.66358 15.9614 5.85188L16.7354 6.48512ZM16.3561 6.9795C16.3594 6.97177 16.3764 6.93799 16.4437 6.84862C16.5092 6.76167 16.6006 6.64979 16.7354 6.48512L15.9614 5.85188C15.832 6.00998 15.7254 6.14017 15.6449 6.24702C15.5663 6.35144 15.4895 6.46317 15.4371 6.58506L16.3561 6.9795ZM16.6301 7.64105C16.369 7.53679 16.2452 7.23784 16.3561 6.9795L15.4371 6.58506C15.1045 7.36009 15.476 8.25694 16.2592 8.56974L16.6301 7.64105ZM17.2479 7.72244C17.0362 7.70127 16.8924 7.6868 16.7846 7.67162C16.6738 7.65602 16.6379 7.64417 16.6301 7.64105L16.2592 8.56974C16.3824 8.61893 16.5157 8.64362 16.6452 8.66185C16.7776 8.6805 16.9451 8.69715 17.1484 8.71748L17.2479 7.72244ZM17.7628 7.8014C17.6136 7.75674 17.4451 7.74216 17.2479 7.72244L17.1484 8.71748C17.3905 8.74169 17.4416 8.74907 17.4761 8.7594L17.7628 7.8014ZM18.8054 8.95337C18.6993 8.40531 18.2976 7.96149 17.7628 7.8014L17.4761 8.7594C17.6543 8.81276 17.7882 8.9607 17.8236 9.14339L18.8054 8.95337ZM18.8327 9.47362C18.8327 9.27546 18.8349 9.10629 18.8054 8.95338L17.8236 9.14339C17.8304 9.17875 17.8327 9.23031 17.8327 9.47362H18.8327ZM18.8327 10.5266V9.47362H17.8327V10.5266H18.8327ZM18.8054 11.0467C18.8349 10.8938 18.8327 10.7247 18.8327 10.5266H17.8327C17.8327 10.7698 17.8304 10.8214 17.8236 10.8567L18.8054 11.0467ZM17.7627 12.1988C18.2976 12.0387 18.6993 11.5948 18.8054 11.0467L17.8236 10.8567C17.7882 11.0395 17.6543 11.1874 17.476 11.2408L17.7627 12.1988ZM17.248 12.2777C17.4451 12.258 17.6136 12.2434 17.7627 12.1988L17.476 11.2408C17.4415 11.2511 17.3905 11.2585 17.1485 11.2827L17.248 12.2777ZM17.2963 12.2705L17.2963 12.2705L17.1002 11.2899L17.1001 11.2899L17.2963 12.2705ZM16.6305 12.359C16.6383 12.3559 16.6742 12.3441 16.7849 12.3285C16.8927 12.3133 17.0364 12.2989 17.248 12.2777L17.1485 11.2827C16.9453 11.303 16.7779 11.3196 16.6455 11.3383C16.5162 11.3565 16.3829 11.3812 16.2598 11.4303L16.6305 12.359ZM16.3564 13.0207C16.2455 12.7623 16.3693 12.4633 16.6305 12.359L16.2598 11.4303C15.4763 11.743 15.1047 12.6401 15.4376 13.4153L16.3564 13.0207ZM16.7355 13.5148C16.6008 13.3502 16.5095 13.2384 16.444 13.1515C16.3768 13.0622 16.3597 13.0284 16.3564 13.0207L15.4376 13.4153C15.4899 13.5371 15.5666 13.6488 15.6452 13.7531C15.7257 13.8599 15.8322 13.99 15.9615 14.148L16.7355 13.5148ZM17.0436 13.9345C16.9697 13.7975 16.8609 13.668 16.7355 13.5148L15.9615 14.148C16.1155 14.3362 16.1464 14.3775 16.1635 14.4092L17.0436 13.9345ZM16.9662 15.4865C17.2788 15.0239 17.3087 14.4259 17.0436 13.9345L16.1635 14.4092C16.2518 14.573 16.2419 14.7723 16.1376 14.9266L16.9662 15.4865ZM16.6178 15.8734C16.7579 15.7334 16.879 15.6155 16.9662 15.4865L16.1376 14.9266C16.1175 14.9564 16.0827 14.9944 15.9107 15.1663L16.6178 15.8734ZM15.8732 16.6181L16.6178 15.8734L15.9107 15.1663L15.1661 15.911L15.8732 16.6181ZM15.486 16.9666C15.6151 16.8794 15.7331 16.7582 15.8732 16.6181L15.1661 15.911C14.994 16.083 14.956 16.1179 14.9262 16.138L15.486 16.9666ZM13.9342 17.044C14.4256 17.309 15.0235 17.2792 15.486 16.9666L14.9262 16.138C14.772 16.2422 14.5727 16.2522 14.4089 16.1638L13.9342 17.044ZM13.5143 16.7358C13.6677 16.8612 13.7972 16.9701 13.9342 17.044L14.4089 16.1638C14.3772 16.1467 14.3359 16.1159 14.1476 15.9618L13.5143 16.7358ZM13.5536 16.7648L13.5536 16.7648L14.1083 15.9327L14.1083 15.9327L13.5536 16.7648ZM13.5108 16.7329L13.5109 16.7329L14.151 15.9647L14.151 15.9646L13.5108 16.7329ZM13.02 16.3565C13.0277 16.3598 13.0615 16.3768 13.1508 16.4441C13.2378 16.5096 13.3497 16.601 13.5143 16.7357L14.1475 15.9618C13.9895 15.8324 13.8593 15.7258 13.7524 15.6453C13.648 15.5667 13.5363 15.4899 13.4144 15.4376L13.02 16.3565ZM12.3584 16.6305C12.4627 16.3694 12.7616 16.2456 13.02 16.3565L13.4144 15.4376C12.6394 15.1049 11.7425 15.4764 11.4297 16.2597L12.3584 16.6305ZM12.277 17.2484C12.2982 17.0367 12.3127 16.8929 12.3278 16.7851C12.3434 16.6742 12.3553 16.6383 12.3584 16.6305L11.4297 16.2597C11.3805 16.3828 11.3558 16.5162 11.3376 16.6456C11.319 16.7781 11.3023 16.9456 11.282 17.1489L12.277 17.2484ZM12.198 17.7637C12.2427 17.6144 12.2573 17.4457 12.277 17.2484L11.282 17.1489C11.2577 17.3912 11.2504 17.4423 11.24 17.4768L12.198 17.7637ZM11.0462 18.8061C11.5941 18.7 12.0379 18.2984 12.198 17.7637L11.24 17.4768C11.1866 17.6551 11.0387 17.7889 10.8561 17.8243L11.0462 18.8061ZM10.5257 18.8334C10.724 18.8334 10.8932 18.8357 11.0462 18.8061L10.8561 17.8243C10.8207 17.8311 10.7691 17.8334 10.5257 17.8334V18.8334ZM9.47288 18.8334H10.5257V17.8334H9.47288V18.8334ZM8.95265 18.8061C9.10555 18.8357 9.27473 18.8334 9.47288 18.8334V17.8334C9.22958 17.8334 9.17802 17.8312 9.14266 17.8243L8.95265 18.8061ZM7.80067 17.7636C7.96075 18.2984 8.40458 18.7 8.95265 18.8061L9.14266 17.8243C8.95997 17.7889 8.81203 17.6551 8.75867 17.4768L7.80067 17.7636ZM7.72171 17.2486C7.74143 17.4458 7.75601 17.6144 7.80067 17.7636L8.75867 17.4768C8.74834 17.4423 8.74096 17.3912 8.71675 17.1491L7.72171 17.2486ZM7.64032 16.6308C7.64344 16.6386 7.65529 16.6746 7.67089 16.7854C7.68607 16.8931 7.70054 17.0369 7.72171 17.2486L8.71675 17.1491C8.69642 16.9458 8.67977 16.7784 8.66112 16.6459C8.64289 16.5165 8.6182 16.3831 8.569 16.2599L7.64032 16.6308ZM6.97877 16.3568C7.23711 16.2459 7.53605 16.3697 7.64032 16.6308L8.569 16.2599C8.2562 15.4767 7.35937 15.1052 6.58435 15.4379L6.97877 16.3568ZM6.48436 16.7361C6.64904 16.6014 6.76093 16.5099 6.84789 16.4445C6.93726 16.3772 6.97104 16.3601 6.97877 16.3568L6.58435 15.4379C6.46245 15.4902 6.35071 15.567 6.24628 15.6457C6.13943 15.7261 6.00924 15.8328 5.85113 15.9622L6.48436 16.7361ZM6.0644 17.0444C6.20149 16.9705 6.331 16.8616 6.48436 16.7361L5.85113 15.9622C5.66281 16.1162 5.62147 16.1471 5.58977 16.1642L6.0644 17.0444ZM4.51267 16.967C4.97521 17.2795 5.57305 17.3094 6.0644 17.0444L5.58977 16.1642C5.42599 16.2525 5.22671 16.2426 5.07253 16.1384L4.51267 16.967ZM4.12548 16.6185C4.26559 16.7586 4.38362 16.8798 4.51267 16.967L5.07252 16.1384C5.04268 16.1183 5.00463 16.0834 4.83258 15.9114L4.12548 16.6185ZM4.14684 16.6386L4.14685 16.6386L4.81121 15.8912L4.8112 15.8912L4.14684 16.6386ZM3.38094 15.8739L4.12547 16.6185L4.83258 15.9114L4.08804 15.1668L3.38094 15.8739ZM3.38093 15.8739L3.38094 15.8739L4.08804 15.1668L4.08803 15.1668L3.38093 15.8739ZM3.0324 15.4867C3.1196 15.6158 3.24082 15.7338 3.38093 15.8739L4.08804 15.1668C3.916 14.9948 3.88115 14.9567 3.86098 14.9269L3.0324 15.4867ZM2.95501 13.935C2.69004 14.4263 2.71986 15.0242 3.0324 15.4867L3.86099 14.9269C3.75681 14.7727 3.74687 14.5734 3.83519 14.4096L2.95501 13.935ZM3.26329 13.515C3.13781 13.6684 3.02893 13.7979 2.95501 13.935L3.83519 14.4096C3.85228 14.3779 3.88318 14.3366 4.03725 14.1483L3.26329 13.515ZM3.64257 13.0207C3.63926 13.0284 3.62223 13.0622 3.55492 13.1515C3.48944 13.2385 3.39802 13.3504 3.26329 13.515L4.03725 14.1483C4.1666 13.9902 4.27325 13.86 4.35372 13.7531C4.43236 13.6487 4.50918 13.537 4.5615 13.4151L3.64257 13.0207ZM3.36855 12.3591C3.62963 12.4634 3.75347 12.7623 3.64257 13.0207L4.5615 13.4151C4.89417 12.6401 4.52268 11.7432 3.73941 11.4304L3.36855 12.3591ZM2.75079 12.2777C2.96249 12.2989 3.10624 12.3134 3.21403 12.3285C3.32481 12.3441 3.36073 12.356 3.36855 12.3591L3.73941 11.4304C3.61623 11.3812 3.48291 11.3565 3.35346 11.3383C3.22101 11.3197 3.05355 11.303 2.85029 11.2827L2.75079 12.2777ZM2.23589 12.1988C2.38508 12.2434 2.55363 12.258 2.75079 12.2777L2.85029 11.2827C2.60822 11.2585 2.55714 11.2511 2.52264 11.2408L2.23589 12.1988ZM1.19334 11.0468C1.29941 11.5949 1.70108 12.0387 2.23589 12.1988L2.52264 11.2408C2.34437 11.1874 2.21048 11.0395 2.17512 10.8568L1.19334 11.0468ZM1.16602 10.5266C1.16602 10.7247 1.16375 10.8939 1.19334 11.0468L2.17512 10.8568C2.16828 10.8214 2.16602 10.7699 2.16602 10.5266H1.16602ZM1.16602 9.4737L1.16602 10.5266H2.16602L2.16602 9.4737H1.16602ZM1.19336 8.95327C1.16375 9.10624 1.16602 9.27547 1.16602 9.4737H2.16602C2.16602 9.23031 2.16828 9.17873 2.17513 9.14336L1.19336 8.95327ZM2.23577 7.80143C1.70106 7.96153 1.29946 8.40529 1.19336 8.95327L2.17513 9.14336C2.2105 8.9607 2.34436 8.81278 2.5226 8.75941L2.23577 7.80143ZM2.75089 7.72243C2.55365 7.74216 2.38503 7.75674 2.23577 7.80143L2.5226 8.75941C2.55712 8.74908 2.60821 8.74169 2.8504 8.71747L2.75089 7.72243ZM3.36892 7.64101C3.3611 7.64413 3.32516 7.65598 3.21433 7.67159C3.1065 7.68677 2.96268 7.70125 2.75089 7.72243L2.8504 8.71747C3.05374 8.69713 3.22128 8.68048 3.35378 8.66182C3.48328 8.64358 3.61666 8.61888 3.73989 8.56965L3.36892 7.64101ZM3.64291 6.97952C3.75375 7.23784 3.62995 7.53673 3.36892 7.64101L3.7399 8.56965C4.52299 8.25681 4.8944 7.36014 4.56188 6.5852L3.64291 6.97952ZM3.26343 6.48488C3.39823 6.64964 3.4897 6.76158 3.55522 6.84858C3.62256 6.938 3.63959 6.97179 3.64291 6.97952L4.56188 6.5852C4.50955 6.46324 4.4327 6.35146 4.35402 6.24698C4.27351 6.14009 4.16682 6.00983 4.03739 5.85164L3.26343 6.48488ZM2.95496 6.06465C3.02891 6.20183 3.13787 6.33141 3.26343 6.48488L4.03739 5.85164C3.88322 5.66321 3.8523 5.62184 3.8352 5.59012L2.95496 6.06465ZM3.03234 4.51319C2.71992 4.97568 2.69011 5.57338 2.95496 6.06465L3.8352 5.59012C3.74692 5.42636 3.75685 5.22712 3.86099 5.07296L3.03234 4.51319ZM3.38107 4.12577C3.24087 4.26597 3.11958 4.38406 3.03234 4.51319L3.86099 5.07296C3.88116 5.0431 3.91604 5.00502 4.08818 4.83288L3.38107 4.12577ZM3.36298 4.14484L3.36298 4.14484L4.10627 4.81381L4.10627 4.8138L3.36298 4.14484ZM4.12551 3.38133L3.38107 4.12577L4.08818 4.83288L4.83261 4.08844L4.12551 3.38133ZM4.51271 3.03279C4.38365 3.11999 4.26563 3.24121 4.12551 3.38133L4.83261 4.08844C5.00466 3.91639 5.04272 3.88154 5.07256 3.86138L4.51271 3.03279ZM6.06444 2.95539C5.57309 2.69044 4.97525 2.72025 4.5127 3.03279L5.07256 3.86138C5.22675 3.7572 5.42603 3.74726 5.58981 3.83558L6.06444 2.95539ZM6.48447 3.26374C6.33106 3.13822 6.20153 3.02932 6.06444 2.95539L5.58981 3.83558C5.62151 3.85267 5.66287 3.88358 5.85123 4.03769L6.48447 3.26374ZM6.97874 3.64296C6.97102 3.63964 6.93726 3.62262 6.8479 3.55532C6.76097 3.48984 6.6491 3.39844 6.48446 3.26374L5.85123 4.0377C6.0093 4.16703 6.13946 4.27365 6.24627 4.3541C6.35066 4.43272 6.46235 4.50952 6.58419 4.56183L6.97874 3.64296ZM7.64038 3.3689C7.53613 3.63005 7.23712 3.7539 6.97874 3.64296L6.58419 4.56183C7.35931 4.89466 8.25637 4.52309 8.56912 3.73965L7.64038 3.3689ZM7.72172 2.75142C7.70056 2.96302 7.6861 3.10671 7.67093 3.21445C7.65534 3.32518 7.6435 3.36109 7.64038 3.3689L8.56912 3.73965C8.61827 3.61651 8.64294 3.48325 8.66116 3.35386C8.6798 3.22148 8.69644 3.05409 8.71676 2.85092L7.72172 2.75142ZM7.80063 2.23674C7.756 2.38588 7.74143 2.55435 7.72172 2.75142L8.71676 2.85092C8.74096 2.60895 8.74834 2.5579 8.75866 2.52341L7.80063 2.23674ZM8.95279 1.19405C8.40461 1.30009 7.96069 1.70183 7.80063 2.23674L8.75866 2.52341C8.81201 2.34511 8.95998 2.2112 9.14271 2.17585L8.95279 1.19405ZM9.47276 1.16675C9.27471 1.16675 9.10562 1.16448 8.95279 1.19405L9.14271 2.17585C9.17805 2.16901 9.22958 2.16675 9.47276 2.16675V1.16675ZM10.5258 1.16675H9.47276V2.16675H10.5258V1.16675ZM11.046 1.19407C10.8931 1.16448 10.724 1.16675 10.5258 1.16675V2.16675C10.7691 2.16675 10.8207 2.16901 10.856 2.17586L11.046 1.19407ZM12.198 2.23662C12.038 1.70181 11.5941 1.30014 11.046 1.19407L10.856 2.17586C11.0387 2.21121 11.1867 2.3451 11.24 2.52337L12.198 2.23662ZM12.8327 10.0001C12.8327 11.5649 11.5642 12.8334 9.99935 12.8334V13.8334C12.1164 13.8334 13.8327 12.1172 13.8327 10.0001H12.8327ZM9.99935 7.16675C11.5642 7.16675 12.8327 8.43527 12.8327 10.0001H13.8327C13.8327 7.88299 12.1164 6.16675 9.99935 6.16675V7.16675ZM7.16602 10.0001C7.16602 8.43527 8.43454 7.16675 9.99935 7.16675V6.16675C7.88226 6.16675 6.16602 7.88299 6.16602 10.0001H7.16602ZM9.99935 12.8334C8.43454 12.8334 7.16602 11.5649 7.16602 10.0001H6.16602C6.16602 12.1172 7.88226 13.8334 9.99935 13.8334V12.8334Z" fill="#222222"/>
</svg>
