<svg width="20" height="20" viewBox="0 0 20 20" fill="none" xmlns="http://www.w3.org/2000/svg">
<path d="M1.66602 10L1.27558 9.68769L1.0257 10L1.27558 10.3124L1.66602 10ZM9.16602 10.5C9.44216 10.5 9.66602 10.2762 9.66602 10C9.66602 9.7239 9.44216 9.50004 9.16602 9.50004V10V10.5ZM4.99935 5.83337L4.60891 5.52103L1.27558 9.68769L1.66602 10L2.05645 10.3124L5.38978 6.14572L4.99935 5.83337ZM1.66602 10L1.27558 10.3124L4.60891 14.4791L4.99935 14.1667L5.38978 13.8544L2.05645 9.68769L1.66602 10ZM1.66602 10V10.5H9.16602V10V9.50004H1.66602V10Z" fill="#D7535F"/>
<path d="M8.33398 6.77657V6.61393C8.33398 5.10107 8.33398 4.34464 8.75165 3.80435C8.78814 3.75714 8.82673 3.71159 8.8673 3.66783C9.33158 3.16703 10.0777 3.04267 11.57 2.79396C14.5994 2.28905 16.1141 2.0366 17.1437 2.81534C17.2319 2.88203 17.3163 2.95354 17.3966 3.02954C18.334 3.91709 18.334 5.4527 18.334 8.52392V11.476C18.334 14.5472 18.334 16.0828 17.3966 16.9704C17.3163 17.0464 17.2319 17.1179 17.1437 17.1846C16.1141 17.9633 14.5989 17.7108 11.5685 17.2057C10.0779 16.9573 9.33262 16.8331 8.86859 16.3335C8.82712 16.2888 8.78771 16.2423 8.75049 16.1941C8.33398 15.6542 8.33398 14.8989 8.33398 13.3883" stroke="#D7535F"/>
</svg>
