<svg width="20" height="20" viewBox="0 0 20 20" fill="none" xmlns="http://www.w3.org/2000/svg">
<path d="M7.9165 12.0835L7.9165 9.5835" stroke="#DC3545" stroke-linecap="round"/>
<path d="M12.0835 12.0835L12.0835 9.5835" stroke="#DC3545" stroke-linecap="round"/>
<path d="M2.5 5.4165L17.5 5.4165C16.6463 5.4165 16.2194 5.4165 15.8788 5.54469C15.3398 5.74757 14.9144 6.17297 14.7115 6.712C14.5833 7.05259 14.5833 7.47945 14.5833 8.33317L14.5833 12.2498C14.5833 14.1355 14.5833 15.0783 13.9975 15.6641C13.4118 16.2498 12.469 16.2498 10.5833 16.2498H9.41667C7.53105 16.2498 6.58824 16.2498 6.00245 15.6641C5.41667 15.0783 5.41667 14.1355 5.41667 12.2498L5.41667 8.33317C5.41667 7.47945 5.41667 7.05259 5.28848 6.712C5.0856 6.17297 4.6602 5.74757 4.12117 5.54469C3.78058 5.4165 3.35372 5.4165 2.5 5.4165Z" stroke="#DC3545" stroke-linecap="round"/>
<path d="M7.91683 2.91703C7.91683 2.91703 8.3335 2.0835 10.0002 2.0835C11.6668 2.0835 12.0835 2.91683 12.0835 2.91683" stroke="#DC3545" stroke-linecap="round"/>
</svg>
